<?xml version="1.0" encoding="UTF-8" standalone="no"?>
<!-- Created with Inkscape (http://www.inkscape.org/) -->

<svg
   version="1.1"
   id="svg2"
   width="2557.3333"
   height="3129.3333"
   viewBox="0 0 2557.3333 3129.3333"
   sodipodi:docname="JEMA GER 1660-01.eps"
   xmlns:inkscape="http://www.inkscape.org/namespaces/inkscape"
   xmlns:sodipodi="http://sodipodi.sourceforge.net/DTD/sodipodi-0.dtd"
   xmlns="http://www.w3.org/2000/svg"
   xmlns:svg="http://www.w3.org/2000/svg">
  <defs
     id="defs6" />
  <sodipodi:namedview
     id="namedview4"
     pagecolor="#ffffff"
     bordercolor="#000000"
     borderopacity="0.25"
     inkscape:showpageshadow="2"
     inkscape:pageopacity="0.0"
     inkscape:pagecheckerboard="0"
     inkscape:deskcolor="#d1d1d1" />
  <g
     id="g8"
     inkscape:groupmode="layer"
     inkscape:label="ink_ext_XXXXXX"
     transform="matrix(1.3333333,0,0,-1.3333333,0,3129.3333)">
    <g
       id="g10"
       transform="scale(0.1)">
      <path
         d="m 5175.51,2320.9 c -19.6,390.9 -84.15,1980.2 71.21,3452.7 155.66,-915.2 330.42,-2244.2 375.47,-3779.9 0.13,-4.2 0.54,-9 0.9,-13.7 -84.91,132.9 -249.76,260.9 -447.58,340.9 z m 7147.09,19367.3 c 9,-11.6 17.8,-22.7 26.2,-33.2 30.7,-38.4 65.5,-82.1 80.5,-112.2 24.2,-48.2 89.7,-281.1 152.8,-526.6 -68.9,8.1 -144.7,19 -205.9,28.3 l -123.4,452.6 c 38.7,58.1 65.2,124.6 69.8,191.1 z M 11579.7,7458.5 c 269.3,-1557.2 649.2,-4039.8 580.1,-5304.2 -5.7,7.4 -11.9,14.8 -18,22.1 -101.3,196.2 -299,310.7 -426.8,367.2 -78.6,529.6 -392.7,2873.7 -135.3,4914.9 z M 8499.99,5578.6 c 190.18,-1131.2 422.44,-2726 394.31,-3624.5 -70.13,71.1 -159.32,137.7 -261.68,192.3 -52.26,349 -271.25,1952.7 -132.63,3432.2 z m -3238.32,4970.9 c -94.62,17.7 -207.57,31.9 -327.2,31.9 -67.37,0 -131.39,-5.6 -193.11,-14.7 71.49,376.5 225.63,824.4 563.02,1240.6 -76.69,-418.8 -77.53,-855.3 -42.71,-1257.8 z m 2918.06,5620.4 c 21.06,-5.9 40.89,-12.1 52.81,-18 32.35,-16.6 153.92,-108.9 284.41,-212.3 -23.22,-13.1 -47.74,-26.7 -72.4,-40.1 l -249.24,193.4 c -2.51,26.2 -7.65,52.2 -15.58,77 z m 8191.57,4050.4 c -33.2,354.6 -188.5,751.1 -421.4,822.7 -101.5,31.3 -217.9,47.2 -345.8,47.2 -181.1,0 -324.5,-32.1 -330.6,-33.5 -348.9,-80.1 -875.1,-126 -1444,-126 -391.8,0 -646.4,21.2 -727.6,35.7 -59.8,93.3 -188.3,444.4 -251.1,652.9 0.6,17.1 19.5,62.1 32.1,92.2 34,80.7 76.2,181.2 59.5,297.7 -15.3,107 -100.4,176.2 -216.9,176.2 v 0 c -156.5,0 -392.7,-132.5 -446.4,-186.2 -28.3,-28.3 -42.8,-58.1 -47.4,-88.3 -46,40.7 -104,62.1 -168.8,62.1 -178.8,0 -391.2,-176.3 -425.4,-313 -28.3,-113.4 41.3,-215.3 184.5,-278.3 14.3,-109.4 40.9,-323.8 70.4,-615.2 -88,-48.9 -180,-127.3 -233.5,-252.1 -85.2,-198.8 -58,-835.9 -16,-1494.7 3.3,-51 5.9,-91.3 7.2,-117.3 l 2.2,-41.4 -2.2,-46.6 c -2,-42.4 -49.2,-1039.8 -46.7,-1195.6 l 0.2,-8.9 h -1.6 l 1.3,-111.6 c 9.5,-825.2 -3.5,-2209.8 -78.5,-2412.3 l -30.8,-83.2 27.7,-17.8 -2.9,-22.4 c -33.7,-264.9 -82.2,-634.4 -119.5,-898.5 -38.8,-69.1 -78.7,-135.6 -118.3,-201.1 -57.3,-94.7 -111.9,-185.1 -159.5,-278.7 -15.5,-2.7 -31.5,-5.5 -47.9,-8.4 -235.4,-40.9 -566,-98.1 -959.3,-137.7 -84.8,557.1 -163.59,1050.4 -216.84,1384 -24.68,154.5 -44.02,275.6 -52.81,333.9 68.37,65.1 313.15,191.2 495.65,285.3 448,230.9 955.8,492.7 1101.1,800.5 116.5,247 90.2,525.8 -74.2,785.1 -172.5,272.3 -485.6,493.7 -697.8,493.7 -32.6,0 -63.2,-5 -90.9,-15 -237.3,-85.6 -419.6,-298.6 -427.3,-307.6 -351.9,-417.6 -1063.88,-926.8 -1239.78,-1020.5 -84.37,37.3 -295.3,174.6 -418.06,264.1 -5.07,12.3 -11.52,37.9 -15.98,55.6 -16.22,64.3 -38.44,152.5 -107.84,221.7 -35.74,35.6 -82.12,55.3 -130.59,55.3 -205.92,0 -316.39,-343.5 -321.64,-380.6 -2.4,-16.9 -2.51,-32.5 -0.69,-46.8 -67.33,-9.7 -127.52,-50.6 -171.93,-117.5 -60,-90.5 -98.99,-249.2 -57.35,-347.7 30.15,-71.4 100.69,-114 188.67,-114 22.37,0 44.88,2.6 65.69,6.4 46.18,-49.2 97.86,-105.7 148.62,-163 -75.95,-43.7 -162.1,-116.9 -200.18,-235.1 -40.41,-125.4 -9.15,-436.8 107.88,-1074.6 6.53,-35.6 11.69,-63.6 14.79,-81.8 l 4.66,-27.2 2,-31.2 c 1.44,-22.6 27.46,-428.9 46.54,-676.7 -156.17,25.2 -309.99,55 -460.42,90.5 -56.52,19.7 -383.57,127.2 -759.92,127.2 -415.72,0.1 -738.26,-127.7 -958.67,-379.6 -26.28,-30 -52.62,-64.2 -78.58,-101.8 -876.51,-428.3 -1382,-1393.2 -1482.32,-2812.3 -50.93,-36.1 -97.37,-77.4 -138.42,-124.3 -18.89,-21.6 -37.79,-45.8 -56.4,-72.3 -539.17,-267.4 -1153.49,-938.4 -1139.67,-2605 -65.1,-41.1 -135.34,-135.8 -110.71,-313.1 31.11,-224 33.97,-493.1 5.87,-553.6 -30.4,-65.5 -17.93,-108.7 -2.12,-133.5 19.56,-30.6 53.39,-48.2 92.83,-48.2 24.32,0 47.86,6.7 66.28,19 1.87,1.2 137.05,97.9 239.25,248.4 l 1.52,-0.6 12.58,-5 15.6,-0.4 c 79.93,0 142.44,127.1 152.02,309.1 4.8,91.1 3.24,316.4 -114.45,440.5 -4.38,4.6 -9.51,8 -14.13,12.2 0.73,19.9 1.12,42.6 1.57,69.8 4,244.7 13.34,814 382.59,1340.8 -120.14,-907.1 183.19,-1875.3 230.43,-2018.5 13.8,-152.1 122.89,-1350.1 245.02,-2552 267.02,-2627.6 331.95,-2710.4 374.92,-2765.3 84.89,-108.3 237.01,-163.2 452.11,-163.2 200.01,0 408.39,47 517.34,90.8 94.56,37.9 148.64,120.6 144.66,221.1 -0.28,7.3 -1.45,14.6 -2.36,21.9 68.05,-87.8 210.51,-169.6 507.29,-169.6 166.27,0 344.52,26.7 443.54,66.5 14.52,5.8 28.22,12.5 41.55,19.5 82.83,-21.8 178.58,-33.4 288.28,-33.4 248.33,0 525.47,59.1 670.89,117.5 107.09,43 168.34,136.5 163.85,250.1 -9.33,235.6 -299.09,512.2 -675.61,655.9 -19.46,376.8 -84.33,1862.6 3.23,3475.4 97.7,-13.8 193.95,-26.5 286.82,-37.2 165.09,-870.6 430.64,-2525.1 500.72,-4457.9 7.78,-214.6 252.23,-342.7 653.9,-342.7 66.26,0 231.91,4.7 338.75,47.6 70.08,28.1 119.42,80.8 140.27,146.7 153.18,-93.9 382.85,-110 519.87,-110 69.34,0 242.62,4.8 353.78,49.4 103.14,41.4 166.24,130.7 168.64,238.9 4.2,180.4 -167.67,391.1 -426.69,532.1 -68.54,462.9 -375.35,2765.9 31.09,4406.6 144.58,142.9 275.94,311.3 391.3,504.8 64.8,108.5 120.9,219.4 169.9,330.1 218.3,-1224.4 513.3,-3240.5 597.3,-5557.7 1.5,-41.4 11.6,-79.8 28.1,-115.7 30.7,-98.7 80.6,-137.3 80.6,-137.3 26.9,-10.5 53.4,-19.9 79.7,-28.8 141.9,-83.7 358.8,-130 635.6,-130 180.6,0 338.6,21.9 433.4,59.9 106.7,42.8 169.5,130.8 172.6,241.5 183.7,-155.9 526.6,-180.3 722.1,-180.3 89,0 311,6 450,61.8 116.2,46.6 187.3,146.9 190.1,268.2 5,221.7 -227.2,494.7 -562.7,671 -82.6,549.1 -512.7,3679.2 37.4,5904.6 198.3,191.8 377.8,420.2 535,683.8 383.5,642.9 548.3,1350 574.8,1799.4 48.3,376.4 55.1,833.1 58.7,1347.6 5.8,852.6 -178.4,2644.5 -340.9,4225.5 -112.5,1094.7 -239.2,2327 -223.1,2597.5 7.9,0.7 17.8,1.2 30.1,1.2 120.9,0 330.2,-45.3 551.9,-93.2 323.7,-70 690.7,-149.4 1017.8,-149.4 217.5,0 389.9,35.1 526.9,107.3 379.9,200.3 570.2,610.7 522.1,1126"
         style="fill:#211414;fill-opacity:1;fill-rule:nonzero;stroke:none"
         id="path12" />
      <path
         d="m 9422.86,6169.6 c 8.55,56 17.66,111.7 27.46,166.8 0.93,5.2 1.89,10.4 2.83,15.5 8.92,49.6 18.53,98.7 28.52,147.5 -218.25,-164.5 -460.6,-277.5 -721.74,-333.4 -56.74,-12.2 -119.72,-22.1 -188.09,-29.5 19.88,-111.7 41.02,-232.3 63.02,-360.6 9.94,-58 20.04,-117.5 30.27,-178.3 56.24,-334.5 116.08,-709.3 171.77,-1094.9 10.13,-70.1 20.12,-140.6 29.93,-211.3 14.71,-106 29.01,-212.4 42.74,-318.6 13.74,-106.2 26.9,-212.2 39.33,-317.5 4.14,-35.1 8.21,-70.1 12.19,-104.9 11.94,-104.7 23.09,-208.4 33.32,-310.5 10.22,-102.1 19.52,-202.7 27.71,-301 5.47,-65.6 10.45,-130.2 14.9,-193.7 6.68,-95.2 12.16,-187.9 16.28,-277.4 4.13,-89.5 6.9,-175.8 8.17,-258.4 1.09,-71.2 0.93,-139.4 -0.33,-204.7 30.27,13 114.53,50 206.68,98.7 82.1,43.4 169.49,95.8 229.79,148.5 -62.96,420.8 -318.72,2319.5 -74.75,3917.7"
         style="fill:#de8940;fill-opacity:1;fill-rule:nonzero;stroke:none"
         id="path14" />
      <path
         d="m 6123.74,2695.3 c 0,0 -254.02,1736.4 -36.13,3403.3 12.49,95.6 26.98,190.8 42.7,285.5 -261.15,54.7 -522.45,116 -773.94,181.9 -14.24,-80.3 -27.3,-162.2 -39.78,-244.8 6.45,-33.4 12.97,-67.5 19.61,-102.8 4.37,-23.2 8.77,-46.8 13.21,-70.8 17.75,-95.9 36.05,-198.2 54.64,-306.4 4.65,-27 9.32,-54.4 14,-82.2 9.37,-55.6 18.79,-112.7 28.23,-171.1 56.7,-350.8 114.35,-753 166.16,-1197.3 17.27,-148.1 33.89,-300.9 49.61,-458.1 3.94,-39.3 7.81,-78.8 11.62,-118.6 30.51,-318.7 57.18,-654.4 77.97,-1004.5 5.19,-87.5 10.02,-175.9 14.46,-265.2 2.26,-45.4 4.4,-91 6.44,-136.9 45.75,15.9 112.44,44.2 180.63,90.3 66.1,44.6 133.06,105.9 182.87,189 -4.2,2.9 -8.05,5.8 -12.3,8.7"
         style="fill:#de8940;fill-opacity:1;fill-rule:nonzero;stroke:none"
         id="path16" />
      <path
         d="m 11143.9,16370.2 c -102.8,-40.4 -195.1,-44.4 -229.7,-44.4 -8.8,0 -13.9,0.3 -14.5,0.3 -19.4,1.1 -34.3,17.7 -33.2,37.1 1.1,19.4 17.7,34.2 37.1,33.1 l 2.3,-0.1 8.3,-0.1 c 29,0 113.2,3.8 203.9,39.5 85.2,33.8 175,94.6 236.7,206.9 3.8,6.9 7.8,13.5 11.4,20.8 -1.2,7.3 -2.7,14.6 -4.2,22 -1.8,8.9 -3.8,17.8 -6,26.6 -1.8,7.5 -3.8,15 -5.9,22.5 -2.5,8.7 -5.1,17.4 -7.9,26.1 -2.4,7.4 -4.8,14.7 -7.4,22 -3.1,8.6 -6.4,17.1 -9.8,25.6 -2.9,7.2 -5.7,14.3 -8.8,21.4 -3.7,8.5 -7.6,16.9 -11.5,25.3 -3.3,6.8 -6.5,13.7 -9.9,20.5 -4.3,8.5 -8.8,16.8 -13.4,25.1 -3.5,6.5 -7,13 -10.7,19.5 -4.9,8.4 -10.1,16.7 -15.2,25 -3.8,6.1 -7.4,12.2 -11.3,18.2 -5.6,8.6 -11.5,17.1 -17.4,25.6 -3.8,5.3 -7.3,10.8 -11.2,16.1 -7,9.6 -14.3,19.1 -21.6,28.5 -3,3.8 -5.8,7.8 -8.9,11.6 -10.4,13 -21.1,25.8 -31.9,38.3 -3,3.3 -6.1,6.5 -9.1,9.9 -8.1,9 -16.2,18 -24.5,26.7 -4.3,4.5 -8.7,8.8 -13.1,13.3 -7.1,7.2 -14.2,14.4 -21.4,21.4 -4.9,4.7 -9.8,9.1 -14.8,13.7 -6.8,6.4 -13.7,12.8 -20.6,19 -5.2,4.6 -10.4,8.9 -15.6,13.3 -6.7,5.8 -13.5,11.6 -20.3,17.2 -5.4,4.4 -10.8,8.5 -16.1,12.7 -6.7,5.3 -13.4,10.6 -20.2,15.6 -5.4,4.1 -10.8,7.9 -16.2,11.9 -6.7,4.8 -13.4,9.5 -20.1,14.1 -5.4,3.7 -10.8,7.3 -16.2,10.8 -6.6,4.4 -13.2,8.6 -19.8,12.7 -5.4,3.4 -10.7,6.6 -16.1,9.8 -6.5,3.8 -13,7.5 -19.4,11.1 -5.3,3 -10.6,5.9 -15.9,8.7 -6.3,3.3 -12.7,6.5 -19,9.6 -5.1,2.6 -10.2,5.1 -15.3,7.4 -6.3,2.9 -12.4,5.6 -18.6,8.2 -4.9,2 -9.7,4.1 -14.5,6 -6.2,2.4 -12.2,4.5 -18.1,6.6 -4.6,1.6 -9.3,3.3 -13.7,4.7 -6,1.9 -11.7,3.4 -17.4,4.9 -4.3,1.1 -8.7,2.4 -12.8,3.3 -5.8,1.4 -11.4,2.3 -16.9,3.2 -3.8,0.6 -7.6,1.4 -11.3,1.9 -6,0.8 -11.6,1 -17.3,1.3 -2.9,0.1 -5.9,0.5 -8.7,0.5 -5.5,0.1 -10.6,-0.5 -15.8,-1 -2.7,-0.3 -5.5,-0.2 -8,-0.6 -7.4,-1.1 -14.4,-2.8 -20.8,-5.1 -0.1,0 -0.2,-0.1 -0.3,-0.1 -89.8,-32.4 -171.7,-87.5 -235.3,-139.3 -81.8,-66.6 -133.5,-127.7 -133.5,-127.7 -13.5,-15.9 -27.4,-32 -41.8,-48.1 -4.5,-5.1 -9.3,-10.2 -13.9,-15.3 -10,-11.1 -20.1,-22.2 -30.5,-33.4 -5.7,-6.1 -11.6,-12.2 -17.4,-18.3 -9.8,-10.4 -19.6,-20.7 -29.7,-31 -6.1,-6.4 -12.4,-12.7 -18.7,-19.1 -10.1,-10.2 -20.3,-20.5 -30.7,-30.7 -6.4,-6.3 -12.8,-12.6 -19.3,-19 -10.7,-10.4 -21.5,-20.9 -32.4,-31.3 -6.3,-6 -12.5,-12 -18.9,-18 -11.54,-10.9 -23.22,-21.8 -34.98,-32.8 -5.99,-5.5 -11.96,-11 -18,-16.6 -12.86,-11.8 -25.85,-23.6 -38.91,-35.3 -4.99,-4.5 -9.93,-9 -14.94,-13.5 -6.31,-5.6 -12.71,-11.2 -19.06,-16.8 0.48,-2 0.89,-3.8 1.46,-6 4.26,-17.1 11.01,-42.2 20.82,-73.9 19.61,-63.5 51.48,-153.4 100.25,-258.4 70.86,-152.7 178.06,-337 334.46,-518.4 54.9,-63.6 115.8,-126.8 183.5,-188.1 329.2,155.5 677.8,359.5 798.8,615.9 7.5,15.9 14,31.7 20,47.5 0.2,0.6 0.4,1.3 0.7,2 1.9,5.3 3.6,10.5 5.4,15.7 3.4,9.9 6.6,19.8 9.5,29.6 0.4,1.5 0.7,3 1.1,4.5 1.7,5.9 3.3,11.9 4.7,17.9 2.1,8.2 3.9,16.5 5.6,24.7 0.5,2.7 1,5.5 1.5,8.2 1,5.6 2.2,11.2 3.1,16.8 1.1,7.4 1.9,14.8 2.8,22.2 0.8,6.6 1.6,13.1 2.2,19.7 0.1,1 0.2,2 0.3,3 0.4,4.7 0.5,9.3 0.7,13.9 0.2,3.8 0.3,7.6 0.4,11.4 0.1,1.8 0.2,3.7 0.3,5.5 -67.2,-88.9 -152.4,-142.5 -231,-173.2"
         style="fill:#f78d9e;fill-opacity:1;fill-rule:nonzero;stroke:none"
         id="path18" />
      <path
         d="m 9697.24,15127.7 c -55.58,-45.6 -115.87,-98.3 -166.78,-150.4 -23.11,-24.2 -54.12,-35.9 -83.14,-35.5 -44.56,0.5 -83.7,21.7 -118.04,46.6 -34.26,25.2 -63.61,55.5 -84.33,81 -13.91,17.4 -23.45,30.7 -29.71,45.2 -1.57,4.4 -3.6,8.6 -3.87,18.2 l 1.08,9.1 c 4.58,18.8 23.6,30.4 42.49,25.8 13.93,-3.3 23.78,-14.6 26.2,-27.9 l 5.27,-8.6 c 5.72,-8.4 14.79,-20 25.91,-32.4 22.19,-24.8 53.11,-52.8 82.79,-69.6 19.75,-11.3 38.52,-17.2 52.21,-17.1 12.74,0.4 21.43,3.2 32.82,14.3 83.8,85.7 188.07,169.9 261.1,225.8 52.67,40.3 89.2,65.9 89.56,66.2 1.52,1 3.26,1.3 4.88,2.1 139.48,92.7 371.42,205.9 612.62,332.3 -9.2,8.6 -18.3,17.1 -27.2,25.8 -21.3,20.5 -41.9,41.3 -61.9,62.1 -30.6,31.9 -59.5,64 -87,96.3 -24.9,29.2 -48.6,58.4 -71,87.6 -245.9,319.5 -348.9,628.8 -383.06,753.2 -311.3,-268.7 -650.26,-508.8 -809.52,-602.9 -0.45,-0.4 -0.65,-1 -1.13,-1.4 -6.82,-5.6 -14.66,-10.7 -26.07,-18 -11.21,-7.2 -25.18,-15.7 -41.02,-25.2 -31.65,-19.1 -70.74,-41.9 -108.86,-63.9 -37.85,-21.9 -74.68,-42.9 -102.24,-58.6 -83.97,-60.2 -298.77,-172 -298.77,-172 l -372.87,289.3 c 0,0 18,168.8 -97.9,185.2 l -11.79,0.9 c -107.89,0 -159.2,-215.1 -133.55,-275.8 9.5,-22.5 34.02,-29.8 61.59,-29.8 49.53,0 108.94,23.3 108.94,23.3 0,0 387.21,-402.1 478.16,-571 6.56,-12.2 12.87,-24.2 19.03,-36.3 6.64,-12.9 13.06,-25.8 19.25,-38.7 0.97,-2 1.93,-4 2.9,-6 6.15,-13 12.08,-26 17.8,-39 0.82,-1.8 1.62,-3.7 2.44,-5.6 5.7,-13.1 11.19,-26.4 16.46,-39.8 0.71,-1.8 1.42,-3.6 2.13,-5.5 5.24,-13.5 10.27,-27.1 15.09,-41 0.64,-1.8 1.27,-3.7 1.9,-5.6 4.78,-14 9.37,-28.2 13.73,-42.7 0.56,-1.8 1.1,-3.7 1.65,-5.6 4.35,-14.7 8.51,-29.7 12.45,-45.1 0.47,-1.8 0.92,-3.7 1.38,-5.5 3.94,-15.6 7.68,-31.6 11.22,-48.1 0.39,-1.8 0.77,-3.7 1.16,-5.5 3.52,-16.7 6.86,-33.8 10.01,-51.5 0.33,-1.9 0.65,-3.8 0.97,-5.7 3.13,-17.9 6.07,-36.4 8.83,-55.6 0.27,-1.8 0.52,-3.7 0.78,-5.6 2.75,-19.4 5.33,-39.4 7.72,-60.2 0.21,-1.9 0.42,-3.8 0.62,-5.7 2.38,-21.1 4.59,-42.9 6.62,-65.5 0.16,-1.9 0.32,-3.8 0.48,-5.7 2.01,-22.9 3.88,-46.6 5.56,-71.3 0.13,-1.9 0.24,-3.9 0.37,-5.7 1.66,-24.9 3.18,-50.7 4.52,-77.5 0.11,-2.1 0.2,-4.3 0.31,-6.4 1.33,-27.2 2.52,-55.3 3.55,-84.6 0.06,-1.6 0.11,-3.2 0.16,-4.8 1.03,-29.9 1.92,-60.9 2.65,-93.2 0.04,-1.6 0.07,-3.2 0.1,-4.8 0.73,-32.6 1.32,-66.4 1.76,-101.5 0.63,-50 0.99,-102.7 1.09,-158.3 0.05,-28.8 0.05,-58.3 -0.03,-88.7 -0.01,-4.4 -0.03,-9 -0.05,-13.5 -0.08,-28.2 -0.22,-57.1 -0.42,-86.8 -0.02,-4.2 -0.04,-8.3 -0.07,-12.5 -0.22,-32.1 -0.51,-65.1 -0.84,-98.9 -0.07,-6.7 -0.15,-13.7 -0.22,-20.5 -0.33,-31.2 -0.7,-63 -1.11,-95.6 -0.05,-3.9 -0.09,-7.7 -0.14,-11.6 -0.46,-35.1 -0.97,-71.3 -1.52,-108.1 -0.15,-10.2 -0.31,-20.5 -0.47,-30.8 -0.53,-34.3 -1.08,-69.1 -1.68,-104.9 -0.06,-3.5 -0.11,-6.9 -0.18,-10.5 -0.67,-40 -1.4,-81.2 -2.16,-123.1 -0.17,-9.9 -0.36,-19.8 -0.54,-29.8 -0.78,-42.2 -1.57,-85.1 -2.43,-129.4 h 0.01 c -2.25,-117.2 -4.76,-241.8 -7.46,-374.3 -0.38,-18.9 -0.78,-38.1 -1.17,-57.4 -0.23,-11.3 -0.46,-22.4 -0.69,-33.8 -0.18,-8.8 -0.37,-17.9 -0.55,-26.8 -2.01,-98 -4.11,-199.9 -6.27,-306.3 -0.27,-12.7 -0.53,-25.6 -0.79,-38.5 -2.07,-101.7 -4.19,-207 -6.36,-316.7 -0.03,-1.4 -0.05,-2.9 -0.08,-4.3 -1.06,-53.5 -2.13,-108.2 -3.2,-163.7 -0.21,-10.8 -0.42,-21.7 -0.63,-32.5 -0.87,-45.2 -1.75,-91 -2.63,-137.5 -0.31,-16.1 -0.6,-32.1 -0.91,-48.3 -0.91,-48.2 -1.82,-97.3 -2.74,-146.9 -0.17,-9.4 -0.34,-18.3 -0.51,-27.7 0,0 0,0 0.01,0 -1.93,-105.1 -3.87,-212.8 -5.8,-324.4 -1.35,-78 -17.4,-147.9 -41.9,-212.4 -9.12,-24 -19.09,-47.4 -30.4,-70 -1.01,-2 -2.15,-3.9 -3.17,-5.9 -10.96,-21.4 -22.83,-42.2 -35.24,-62.5 -2.87,-4.7 -5.67,-9.5 -8.6,-14.1 -13.22,-21 -26.93,-41.5 -41.08,-61.6 -2.7,-3.8 -5.46,-7.6 -8.19,-11.4 -12.98,-18.1 -26.13,-35.9 -39.36,-53.5 -3.21,-4.3 -6.35,-8.5 -9.56,-12.8 -6.36,-8.4 -12.6,-16.6 -18.91,-24.9 -5.73,-7.5 -11.49,-15.1 -17.16,-22.6 -3.84,-5 -7.63,-10.1 -11.43,-15.2 -13.13,-17.4 -25.89,-34.7 -38.21,-52 -2.06,-2.9 -4.24,-5.8 -6.27,-8.7 -13.05,-18.6 -25.23,-37.2 -36.76,-55.8 -2.7,-4.4 -5.3,-8.8 -7.9,-13.2 -11.48,-19.4 -22.31,-38.9 -31.43,-58.7 -80.14,-13.6 -178.98,-31.3 -293.38,-50 -3.81,-0.6 -7.64,-1.2 -11.49,-1.8 -37.11,-6 -75.73,-12.1 -115.97,-18.2 0,0 0.01,0 0.02,0 -64.57,-9.7 -133.28,-19.3 -205.39,-28.4 -50.58,-6.3 -103.02,-12.4 -157.02,-18.1 -2.14,-0.3 -4.19,-0.5 -6.33,-0.7 -52.05,-5.5 -105.87,-10.4 -160.85,-14.9 -7.69,-0.7 -15.37,-1.3 -23.13,-1.9 -55.44,-4.4 -112.07,-8.3 -170.2,-11.4 -2.91,-0.1 -5.9,-0.3 -8.81,-0.4 -56.65,-3 -114.66,-5.2 -173.64,-6.7 -6.55,-0.2 -12.97,-0.4 -19.55,-0.6 -57.99,-1.3 -117.23,-1.7 -177.23,-1.3 -14.34,0 -28.78,0.3 -43.23,0.5 -51.82,0.6 -104.33,2 -157.48,4.1 -12.47,0.5 -24.74,0.8 -37.28,1.4 -64.25,2.9 -129.37,6.9 -195.32,12.2 -10.85,0.9 -21.86,2.1 -32.77,3 -55.82,4.8 -112.23,10.6 -169.09,17.3 -190.61,22.4 -386.42,55.2 -585.73,102.5 0,0 -3.59,1.3 -9.57,3.4 h 0.01 c -0.29,0.1 -0.73,0.2 -1.03,0.3 -0.88,0.3 -2.09,0.7 -3.07,1 -2.7,0.9 -5.63,1.9 -9.1,3 -1.68,0.5 -3.58,1.1 -5.44,1.7 -3.56,1.2 -7.4,2.4 -11.59,3.7 -2.14,0.6 -4.3,1.3 -6.61,2 -5.09,1.5 -10.62,3.2 -16.46,4.9 -1.94,0.5 -3.72,1.1 -5.76,1.6 -8.16,2.4 -16.84,4.8 -26.26,7.4 -0.54,0.1 -1.17,0.3 -1.72,0.4 -8.7,2.4 -17.93,4.8 -27.61,7.2 -2.93,0.8 -6.08,1.5 -9.11,2.3 -7.67,1.9 -15.54,3.8 -23.74,5.7 -3.76,0.9 -7.62,1.7 -11.49,2.6 -8.06,1.8 -16.34,3.7 -24.85,5.5 -4.14,0.9 -8.25,1.7 -12.49,2.6 -9.41,2 -19.11,3.8 -29,5.7 -3.5,0.7 -6.88,1.4 -10.45,2 -13.63,2.5 -27.62,5 -42.02,7.3 -1.43,0.2 -2.94,0.4 -4.38,0.7 -12.78,2 -25.83,3.9 -39.14,5.7 -4.56,0.6 -9.26,1.2 -13.89,1.8 -10.52,1.3 -21.14,2.6 -31.93,3.8 -5.4,0.6 -10.83,1.1 -16.28,1.6 -10.6,1.1 -21.31,2 -32.14,2.9 -5.43,0.4 -10.84,0.9 -16.32,1.2 -12.24,0.9 -24.63,1.5 -37.1,2.1 -4.03,0.2 -8.01,0.4 -12.06,0.6 -16.63,0.6 -33.42,0.9 -50.36,0.9 -11.83,0 -23.76,-0.2 -35.7,-0.5 -3.21,-0.1 -6.4,-0.1 -9.63,-0.2 -14.08,-0.5 -28.22,-1.1 -42.4,-2.1 -5.17,-0.3 -10.36,-0.9 -15.54,-1.3 -9.69,-0.8 -19.38,-1.5 -29.1,-2.6 -5.95,-0.6 -11.9,-1.4 -17.86,-2.2 -8.97,-1 -17.95,-2.1 -26.92,-3.4 -6.27,-1 -12.53,-2.1 -18.8,-3.1 -8.6,-1.4 -17.21,-2.9 -25.79,-4.5 -6.53,-1.3 -13.03,-2.7 -19.55,-4.1 -8.3,-1.8 -16.59,-3.6 -24.86,-5.6 -6.59,-1.6 -13.15,-3.4 -19.71,-5.1 -8.15,-2.2 -16.3,-4.4 -24.4,-6.8 -6.54,-2 -13.04,-4.1 -19.54,-6.2 -8.07,-2.6 -16.09,-5.3 -24.09,-8.2 -6.42,-2.3 -12.8,-4.7 -19.17,-7.1 -7.94,-3.1 -15.82,-6.3 -23.67,-9.7 -6.33,-2.7 -12.64,-5.4 -18.9,-8.3 -7.77,-3.6 -15.46,-7.4 -23.13,-11.2 -6.13,-3.1 -12.27,-6.2 -18.33,-9.4 -7.68,-4.2 -15.26,-8.6 -22.81,-13 -5.87,-3.5 -11.76,-6.9 -17.55,-10.5 -7.62,-4.8 -15.08,-9.9 -22.55,-15 -5.51,-3.8 -11.06,-7.5 -16.49,-11.4 -7.67,-5.6 -15.15,-11.6 -22.63,-17.6 -4.99,-4 -10.08,-7.8 -14.99,-12 -8.15,-6.9 -16.03,-14.3 -23.94,-21.7 -3.98,-3.7 -8.1,-7.2 -12.01,-11.1 -11.7,-11.5 -23.13,-23.5 -34.21,-36.1 l -5.34,-6.4 c 0.01,-0.1 0.03,-0.2 0.04,-0.2 -21.01,-24.7 -41.54,-52.3 -61.47,-83.1 -387,-180.7 -1136.85,-711.7 -1094.11,-2592.3 0,0 9.89,-44.5 26.56,-44.5 9.72,0 21.75,15.1 35.48,63.2 32.69,114.4 -106.07,1103.5 689.95,1860.1 97.87,289.4 209.61,503.7 210.13,504.8 8.99,17.2 30.24,23.9 47.46,14.9 17.23,-9 23.9,-30.3 14.92,-47.5 0,0 -2.21,-4.2 -6.45,-12.7 -4.25,-8.4 -10.46,-20.9 -18.26,-37.1 -15.58,-32.3 -37.5,-79.3 -62.62,-137.3 -50.26,-116.1 -113.38,-276.8 -164.6,-454 -0.27,-0.9 -0.95,-1.5 -1.28,-2.4 -130.04,-555.4 -59.04,-1177.1 30.28,-1620.6 71.54,-355.2 154.49,-595.9 154.49,-595.9 0,0 355.31,-3937.5 531.58,-5002 19.64,8.2 277.82,117 423.8,232.2 -10.47,178.6 -149.04,2683 205.93,4505.3 682.23,-186.8 1544.94,-363.1 2280.59,-440.1 151.37,-780.4 423.54,-2398.2 511.37,-4316.9 108.2,27 343.38,94.5 449.39,190.5 -72.91,497.8 -330.21,2492.3 -35.52,4093.2 102.67,6.9 195.79,18.8 277.19,36.2 1129.22,242.2 1611.79,1554.6 1652.49,2267.1 36.9,284.8 41.2,640.2 43.7,1004.6 8,1163.7 -650.99,5110.9 -719.07,5563.9 -3.71,-3 -7.14,-5.7 -10.89,-8.7"
         style="fill:#fbc445;fill-opacity:1;fill-rule:nonzero;stroke:none"
         id="path20" />
      <path
         d="m 10383.5,8567.9 c 36.9,284.8 41.2,640.2 43.7,1004.6 8,1163.7 -650.99,5110.9 -719.07,5563.9 -3.71,-3 -7.14,-5.7 -10.89,-8.7 -104.66,-355.4 -60.41,-752.4 -31.56,-1125.1 11.13,-143.8 16.54,-287.8 31.39,-431.4 16.31,-157.6 39.76,-314.3 66.66,-470.4 51.66,-299.8 116.14,-597.2 164.44,-897.6 23.9,-148.6 43.92,-297.9 56.96,-447.9 13.63,-156.8 14.72,-313.3 17.67,-470.6 5.5,-299.4 32.3,-597.9 51.5,-896.6 35.4,-551.2 51.1,-1118.2 -155.96,-1640.7 -149.92,-378.3 -409.27,-694.7 -756.15,-908.6 -341.62,-210.7 -736.67,-319.4 -1128.68,-389.5 -485.35,-86.8 -979,-123.8 -1470.51,-154.4 -328.75,-20.4 -658.13,-34.6 -987.59,-31.3 -305.75,3.1 -615.64,12.9 -914.57,82.5 -246.28,57.2 -479.65,149 -708.65,252.2 71.54,-355.2 154.49,-595.9 154.49,-595.9 0,0 355.31,-3937.5 531.58,-5002 19.64,8.2 277.82,117 423.8,232.2 -10.47,178.6 -149.04,2683 205.93,4505.3 682.23,-186.8 1544.94,-363.1 2280.59,-440.1 151.37,-780.4 423.54,-2398.2 511.37,-4316.9 108.2,27 343.38,94.5 449.39,190.5 -72.91,497.8 -330.21,2492.3 -35.52,4093.2 102.67,6.9 195.79,18.8 277.19,36.2 1129.22,242.2 1611.79,1554.6 1652.49,2267.1"
         style="fill:#eb973f;fill-opacity:1;fill-rule:nonzero;stroke:none"
         id="path22" />
      <path
         d="m 10421.1,15678.6 c -21.3,20.5 -41.9,41.3 -61.9,62.1 -30.6,31.9 -59.5,64 -87,96.3 -24.9,29.2 -48.6,58.4 -71,87.6 12.4,-19.5 25.1,-38.5 37.9,-56.9 -116,-98.8 -225,-206.1 -322.26,-322.7 -76.73,-91.9 -133.2,-190.3 -175.6,-292.8 52.67,40.3 89.2,65.9 89.56,66.2 1.52,1 3.26,1.3 4.88,2.1 139.48,92.7 371.42,205.9 612.62,332.3 -9.2,8.6 -18.3,17.1 -27.2,25.8"
         style="fill:#eb973f;fill-opacity:1;fill-rule:nonzero;stroke:none"
         id="path24" />
      <path
         d="m 9322.22,12820.9 c 99.33,86.9 298.84,260.7 211.5,484.2 -87.33,223.5 -312.59,303.5 -360.84,235.9 0,0 -306.75,-409.7 -264.95,-546.3 41.8,-136.5 314.96,-260.7 414.29,-173.8"
         style="fill:#7a4643;fill-opacity:1;fill-rule:nonzero;stroke:none"
         id="path26" />
      <path
         d="m 9391.47,11517.8 c 142.23,99.4 397.3,211.1 325.64,471.9 -71.66,260.7 -264.1,380.2 -325.64,322.8 0,0 -358.94,-310.4 -325.64,-509.1 33.3,-198.7 183.41,-384.9 325.64,-285.6"
         style="fill:#7a4643;fill-opacity:1;fill-rule:nonzero;stroke:none"
         id="path28" />
      <path
         d="m 9376.03,10546.7 c 111.75,106.1 422.16,193 298,379.2 -124.17,186.3 -334.25,388.9 -489.95,287.6 0,0 -122.37,-101.3 -120.41,-300 1.96,-198.7 200.62,-472.9 312.36,-366.8"
         style="fill:#7a4643;fill-opacity:1;fill-rule:nonzero;stroke:none"
         id="path30" />
      <path
         d="m 9383.25,9609.8 c 92.12,161.4 131.37,335.2 0,434.6 -131.38,99.3 -392.12,0 -392.12,0 0,0 -198.66,-285.6 -74.5,-434.6 124.17,-149 374.5,-161.4 466.62,0"
         style="fill:#7a4643;fill-opacity:1;fill-rule:nonzero;stroke:none"
         id="path32" />
      <path
         d="m 8149.83,10065.9 c 273.16,24.8 634.5,321.7 559.36,614 -28.65,111.5 -83.83,186.6 -141.13,237 -1.1,-3 -2.65,-5.8 -3.79,-8.8 -9.12,-24 -19.09,-47.4 -30.4,-70 -1.01,-2 -2.15,-3.9 -3.17,-5.9 -10.96,-21.4 -22.83,-42.2 -35.24,-62.5 -2.87,-4.7 -5.67,-9.5 -8.6,-14.1 -13.22,-21 -26.93,-41.5 -41.08,-61.6 -2.7,-3.8 -5.46,-7.6 -8.19,-11.4 -12.98,-18.1 -26.13,-35.9 -39.36,-53.5 -3.21,-4.3 -6.35,-8.5 -9.56,-12.8 -6.36,-8.4 -12.6,-16.6 -18.91,-24.9 -5.73,-7.5 -11.49,-15.1 -17.16,-22.6 -3.84,-5 -7.63,-10.1 -11.43,-15.2 -13.13,-17.4 -25.89,-34.7 -38.21,-52 -2.06,-2.9 -4.24,-5.8 -6.27,-8.7 -13.05,-18.6 -25.23,-37.2 -36.76,-55.8 -2.7,-4.4 -5.3,-8.8 -7.9,-13.2 -11.48,-19.4 -22.31,-38.9 -31.43,-58.7 -80.14,-13.6 -178.98,-31.3 -293.38,-50 -3.81,-0.6 -7.64,-1.2 -11.49,-1.8 -37.11,-6 -75.73,-12.1 -115.97,-18.2 0,0 0.01,0 0.02,0 53.22,-113.8 164.27,-246.2 350.05,-229.3"
         style="fill:#7a4643;fill-opacity:1;fill-rule:nonzero;stroke:none"
         id="path34" />
      <path
         d="m 5986.38,9931.1 c 24.83,-237.3 322.82,-470.3 670.48,-437.8 347.66,32.6 695.31,290.3 907.88,501.4 100.55,99.8 80.6,197.3 31.69,272.4 -0.65,-0.1 -1.38,-0.2 -2.04,-0.3 -50.58,-6.3 -103.02,-12.4 -157.02,-18.1 -2.14,-0.3 -4.19,-0.5 -6.33,-0.7 -52.05,-5.5 -105.87,-10.4 -160.85,-14.9 -7.69,-0.7 -15.37,-1.3 -23.13,-1.9 -55.44,-4.4 -112.07,-8.3 -170.2,-11.4 -2.91,-0.1 -5.9,-0.3 -8.81,-0.4 -56.65,-3 -114.66,-5.2 -173.64,-6.7 -6.55,-0.2 -12.97,-0.4 -19.55,-0.6 -57.99,-1.3 -117.23,-1.7 -177.23,-1.3 -14.34,0 -28.78,0.3 -43.23,0.5 -51.82,0.6 -104.33,2 -157.48,4.1 -12.47,0.5 -24.74,0.8 -37.28,1.4 -64.25,2.9 -129.37,6.9 -195.32,12.2 -10.85,0.9 -21.86,2.1 -32.77,3 -55.82,4.8 -112.23,10.6 -169.09,17.3 -9.62,1.2 -18.95,1.8 -28.6,3 -35.71,-95.6 -59.02,-210.9 -47.48,-321.2"
         style="fill:#7a4643;fill-opacity:1;fill-rule:nonzero;stroke:none"
         id="path36" />
      <path
         d="m 7364.59,9311.8 c 86.91,-273.2 335.25,-533.9 546.32,-384.9 211.08,149 471.82,112.9 409.74,410.3 -62.08,297.4 -528.03,508.2 -620.81,453.7 0,0 -422.16,-205.9 -335.25,-479.1"
         style="fill:#7a4643;fill-opacity:1;fill-rule:nonzero;stroke:none"
         id="path38" />
      <path
         d="m 5601.47,9026.2 c 173.83,111.8 465.87,189.3 381.93,467.1 -83.94,277.9 -159.11,463.8 -295.01,437.9 0,0 -558.74,-51.3 -496.66,-440.9 62.08,-389.6 235.91,-575.8 409.74,-464.1"
         style="fill:#7a4643;fill-opacity:1;fill-rule:nonzero;stroke:none"
         id="path40" />
      <path
         d="m 4769.58,9647 c 260.74,-111.7 422.15,372.5 620.82,571.2 45.25,45.2 68.41,91.8 76.76,137 h 0.01 c -0.29,0.1 -0.73,0.2 -1.03,0.3 -0.88,0.3 -2.09,0.7 -3.07,1 -2.7,0.9 -5.63,1.9 -9.1,3 -1.68,0.5 -3.58,1.1 -5.44,1.7 -3.56,1.2 -7.4,2.4 -11.59,3.7 -2.14,0.6 -4.3,1.3 -6.61,2 -5.09,1.5 -10.62,3.2 -16.46,4.9 -1.94,0.5 -3.72,1.1 -5.76,1.6 -8.16,2.4 -16.84,4.8 -26.26,7.4 -0.54,0.1 -1.17,0.3 -1.72,0.4 -8.7,2.4 -17.93,4.8 -27.61,7.2 -2.93,0.8 -6.08,1.5 -9.11,2.3 -7.67,1.9 -15.54,3.8 -23.74,5.7 -3.76,0.9 -7.62,1.7 -11.49,2.6 -8.06,1.8 -16.34,3.7 -24.85,5.5 -4.14,0.9 -8.25,1.7 -12.49,2.6 -9.41,2 -19.11,3.8 -29,5.7 -3.5,0.7 -6.88,1.4 -10.45,2 -13.63,2.5 -27.62,5 -42.02,7.3 -1.43,0.2 -2.94,0.4 -4.38,0.7 -12.78,2 -25.83,3.9 -39.14,5.7 -4.56,0.6 -9.26,1.2 -13.89,1.8 -10.52,1.3 -21.14,2.6 -31.93,3.8 -5.4,0.6 -10.83,1.1 -16.28,1.6 -10.6,1.1 -21.31,2 -32.14,2.9 -5.43,0.4 -10.84,0.9 -16.32,1.2 -12.24,0.9 -24.63,1.5 -37.1,2.1 -4.03,0.2 -8.01,0.4 -12.06,0.6 -16.63,0.6 -33.42,0.9 -50.36,0.9 -11.83,0 -23.76,-0.2 -35.7,-0.5 -3.21,-0.1 -6.4,-0.1 -9.63,-0.2 -14.08,-0.5 -28.22,-1.1 -42.4,-2.1 -5.17,-0.3 -10.36,-0.9 -15.54,-1.3 -9.69,-0.8 -19.38,-1.5 -29.1,-2.6 -5.95,-0.6 -11.9,-1.4 -17.86,-2.2 -8.97,-1 -17.95,-2.1 -26.92,-3.4 -6.27,-1 -12.53,-2.1 -18.8,-3.1 -8.6,-1.4 -17.21,-2.9 -25.79,-4.5 -6.53,-1.3 -13.03,-2.7 -19.55,-4.1 -8.3,-1.8 -16.59,-3.6 -24.86,-5.6 -6.59,-1.6 -13.15,-3.4 -19.71,-5.1 -8.15,-2.2 -16.3,-4.4 -24.4,-6.8 -6.54,-2 -13.04,-4.1 -19.54,-6.2 -8.07,-2.6 -16.09,-5.3 -24.09,-8.2 -6.42,-2.3 -12.8,-4.7 -19.17,-7.1 -7.94,-3.1 -15.82,-6.3 -23.67,-9.7 -6.33,-2.7 -12.64,-5.4 -18.9,-8.3 -7.77,-3.6 -15.46,-7.4 -23.13,-11.2 -6.13,-3.1 -12.27,-6.2 -18.33,-9.4 -7.68,-4.2 -15.26,-8.6 -22.81,-13 -5.87,-3.5 -11.76,-6.9 -17.55,-10.5 -7.62,-4.8 -15.08,-9.9 -22.55,-15 -5.51,-3.8 -11.06,-7.5 -16.49,-11.4 -7.67,-5.6 -15.15,-11.6 -22.63,-17.6 -4.99,-4 -10.08,-7.8 -14.99,-12 -8.15,-6.9 -16.03,-14.3 -23.94,-21.7 -3.98,-3.7 -8.1,-7.2 -12.01,-11.1 -11.7,-11.5 -23.13,-23.5 -34.21,-36.1 l -5.34,-6.4 c 0.01,-0.1 0.03,-0.2 0.04,-0.2 27.01,-235.9 284.07,-454.3 483.38,-539.8"
         style="fill:#7a4643;fill-opacity:1;fill-rule:nonzero;stroke:none"
         id="path42" />
      <path
         d="m 6619.61,8293.7 c 223.5,24.8 608.4,214.6 608.4,523.2 0,308.7 -683.94,643.2 -844.31,524.6 0,0 -335.24,-166.2 -285.57,-458 49.66,-291.8 297.99,-614.7 521.48,-589.8"
         style="fill:#7a4643;fill-opacity:1;fill-rule:nonzero;stroke:none"
         id="path44" />
      <path
         d="m 8911.96,15879.9 c -43.16,-32.5 -41.97,-106.9 2.66,-166.3 44.63,-59.3 115.79,-81.1 158.95,-48.7 43.16,32.5 41.98,106.9 -2.66,166.3 -44.62,59.3 -115.79,81.1 -158.95,48.7"
         style="fill:#211414;fill-opacity:1;fill-rule:nonzero;stroke:none"
         id="path46" />
      <path
         d="m 9295.07,15892 c 34.94,26.3 33.98,86.6 -2.15,134.6 -36.13,48 -93.74,65.7 -128.68,39.4 -34.94,-26.3 -33.98,-86.5 2.16,-134.6 36.12,-48 93.73,-65.6 128.67,-39.4"
         style="fill:#211414;fill-opacity:1;fill-rule:nonzero;stroke:none"
         id="path48" />
      <path
         d="m 8772.49,11418 c 211.48,24.9 335.1,807.2 399.26,994.9 64.16,187.6 -162.05,301.8 -390.47,379.1 -49.82,16.9 -97.84,17.8 -142.47,9.1 -2.8,-137.8 -5.84,-284.5 -9,-440.1 -0.27,-12.7 -0.53,-25.6 -0.79,-38.5 -2.07,-101.7 -4.19,-207 -6.36,-316.7 -0.03,-1.4 -0.05,-2.9 -0.08,-4.3 -1.06,-53.5 -2.13,-108.2 -3.2,-163.7 -0.21,-10.8 -0.42,-21.7 -0.63,-32.5 -0.87,-45.2 -1.75,-91 -2.63,-137.5 -0.31,-16.1 -0.6,-32.1 -0.91,-48.3 -1.08,-57.4 -2.17,-115.3 -3.25,-174.6 50.41,-21.3 105.01,-33.4 160.53,-26.9"
         style="fill:#7a4643;fill-opacity:1;fill-rule:nonzero;stroke:none"
         id="path50" />
      <path
         d="m 8904.02,13416.3 c 154.63,228.4 169.71,301.8 88.75,416.1 -54.1,76.3 -210.39,229.5 -334.97,297.1 0.01,-1.7 0,-3.5 0,-5.2 0.05,-28.8 0.05,-58.3 -0.03,-88.7 -0.01,-4.4 -0.03,-9 -0.05,-13.5 -0.08,-28.2 -0.22,-57.1 -0.42,-86.8 -0.02,-4.2 -0.04,-8.3 -0.07,-12.5 -0.22,-32.1 -0.51,-65.1 -0.84,-98.9 -0.07,-6.7 -0.15,-13.7 -0.22,-20.5 -0.33,-31.2 -0.7,-63 -1.11,-95.6 -0.05,-3.9 -0.09,-7.7 -0.14,-11.6 -0.46,-35.1 -0.97,-71.3 -1.52,-108.1 -0.15,-10.2 -0.31,-20.5 -0.47,-30.8 -0.53,-34.3 -1.08,-69.1 -1.68,-104.9 -0.06,-3.5 -0.11,-6.9 -0.18,-10.5 -0.67,-40 -1.4,-81.2 -2.16,-123.1 -0.17,-9.9 -0.36,-19.8 -0.54,-29.8 -0.78,-42.2 -1.57,-85.1 -2.43,-129.4 h 0.01 c 79.21,23.2 158.17,109.1 258.07,256.7"
         style="fill:#7a4643;fill-opacity:1;fill-rule:nonzero;stroke:none"
         id="path52" />
      <path
         d="m 8984.9,14248.4 c 179.8,97.9 309.71,269.2 244.76,603.7 -64.96,334.5 -361.52,571.1 -564.03,538.4 -75.92,-12.2 -137.56,-38.2 -184.96,-65.9 0.51,-1 0.96,-2 1.47,-3 6.64,-12.9 13.06,-25.8 19.25,-38.7 0.97,-2 1.93,-4 2.9,-6 6.15,-13 12.08,-26 17.8,-39 0.82,-1.8 1.62,-3.7 2.44,-5.6 5.7,-13.1 11.19,-26.4 16.46,-39.8 0.71,-1.8 1.42,-3.6 2.13,-5.5 5.24,-13.5 10.27,-27.1 15.09,-41 0.64,-1.8 1.27,-3.7 1.9,-5.6 4.78,-14 9.37,-28.2 13.73,-42.7 0.56,-1.8 1.1,-3.7 1.65,-5.6 4.35,-14.7 8.51,-29.7 12.45,-45.1 0.47,-1.8 0.92,-3.7 1.38,-5.5 3.94,-15.6 7.68,-31.6 11.22,-48.1 0.39,-1.8 0.77,-3.7 1.16,-5.5 3.52,-16.7 6.86,-33.8 10.01,-51.5 0.33,-1.9 0.65,-3.8 0.97,-5.7 3.13,-17.9 6.07,-36.4 8.83,-55.6 0.27,-1.8 0.52,-3.7 0.78,-5.6 2.75,-19.4 5.33,-39.4 7.72,-60.2 0.21,-1.9 0.42,-3.8 0.62,-5.7 2.38,-21.1 4.59,-42.9 6.62,-65.5 0.16,-1.9 0.32,-3.8 0.48,-5.7 2.01,-22.9 3.88,-46.6 5.56,-71.3 0.13,-1.9 0.24,-3.9 0.37,-5.7 1.66,-24.9 3.18,-50.7 4.52,-77.5 0.11,-2.1 0.2,-4.3 0.31,-6.4 1.33,-27.2 2.52,-55.3 3.55,-84.6 0.06,-1.6 0.11,-3.2 0.16,-4.8 1.03,-29.9 1.92,-60.9 2.65,-93.2 0.04,-1.6 0.07,-3.2 0.1,-4.8 0.73,-32.6 1.32,-66.4 1.76,-101.5 0.01,-0.5 0.02,-0.9 0.03,-1.3 100.81,-61.3 207.39,-98.6 328.16,-32.9"
         style="fill:#7a4643;fill-opacity:1;fill-rule:nonzero;stroke:none"
         id="path54" />
      <path
         d="m 7655.96,2103.2 c -4.79,299.6 -460,398.4 -460,398.4 -201.22,72.9 -181.58,-239.3 -41.27,-398.4 140.33,-159.1 506.07,-299.7 501.27,0"
         style="fill:#4b3d3f;fill-opacity:1;fill-rule:nonzero;stroke:none"
         id="path56" />
      <path
         d="m 12187.4,1975.4 c -4.8,299.6 -460,398.4 -460,398.4 -201.2,72.9 -181.6,-239.3 -41.3,-398.4 140.3,-159.1 506.1,-299.7 501.3,0"
         style="fill:#4b3d3f;fill-opacity:1;fill-rule:nonzero;stroke:none"
         id="path58" />
      <path
         d="m 13089.3,2501.6 c -201.2,72.9 -181.6,-239.3 -41.3,-398.4 140.3,-159.1 506.1,-299.7 501.3,0 -4.8,299.6 -460,398.4 -460,398.4"
         style="fill:#4b3d3f;fill-opacity:1;fill-rule:nonzero;stroke:none"
         id="path60" />
      <path
         d="m 5543.92,1823.1 c -3.6,225.4 -345.98,299.7 -345.98,299.7 -151.35,54.8 -136.58,-180.1 -31.04,-299.7 105.54,-119.7 380.63,-225.4 377.02,0"
         style="fill:#4b3d3f;fill-opacity:1;fill-rule:nonzero;stroke:none"
         id="path62" />
      <path
         d="m 6365.08,2334.5 c -151.35,54.8 -136.59,-180.1 -31.04,-299.7 105.53,-119.6 380.63,-225.4 377.02,0 -3.61,225.4 -345.98,299.7 -345.98,299.7"
         style="fill:#4b3d3f;fill-opacity:1;fill-rule:nonzero;stroke:none"
         id="path64" />
      <path
         d="m 8952.21,1726.9 c -3.61,225.4 -345.99,299.7 -345.99,299.7 -151.35,54.9 -136.57,-180 -31.04,-299.7 105.54,-119.6 380.63,-225.3 377.03,0"
         style="fill:#4b3d3f;fill-opacity:1;fill-rule:nonzero;stroke:none"
         id="path66" />
      <path
         d="m 9630.57,2122.8 c -151.35,54.8 -136.58,-180.1 -31.04,-299.7 105.54,-119.7 380.64,-225.4 377.03,0 -3.61,225.4 -345.99,299.7 -345.99,299.7"
         style="fill:#4b3d3f;fill-opacity:1;fill-rule:nonzero;stroke:none"
         id="path68" />
      <path
         d="m 16239.8,20110.9 c -1.9,68.8 -8.8,136.8 -19.5,202.4 -3.6,21.8 -7.6,43.4 -12,64.7 -26.5,127.6 -67.5,243.3 -115.4,334.6 -23.9,45.6 -49.5,85 -76,116.7 -17.6,21.2 -35.5,38.9 -53.6,52.7 -18,13.8 -36.1,23.7 -53.9,29.2 -22.7,7 -45.7,12.5 -68.9,17.5 -6,1.3 -12.1,2.5 -18.2,3.7 -20.4,4 -40.9,7.4 -61.3,10 -2.7,0.3 -5.4,0.8 -8,1.2 -23,2.7 -45.7,4.6 -68.2,6 -5.7,0.4 -11.4,0.6 -17.2,0.9 -18.7,0.9 -37.2,1.4 -55.3,1.5 -4,0 -8,0.2 -11.9,0.2 -18.9,-0.1 -37.4,-0.5 -55.3,-1.2 -4,-0.2 -7.7,-0.4 -11.7,-0.6 -14,-0.7 -27.6,-1.5 -40.7,-2.5 -5.6,-0.4 -11,-0.9 -16.4,-1.3 -11.2,-1 -22,-2 -32.3,-3.1 -4.8,-0.5 -9.7,-1 -14.3,-1.5 -11.7,-1.3 -22.7,-2.7 -33,-4.1 -2.2,-0.3 -4.7,-0.6 -6.8,-0.9 -12.3,-1.7 -23.2,-3.4 -33.2,-5 -3,-0.5 -5.5,-0.9 -8.3,-1.4 -6.7,-1.2 -12.7,-2.2 -18,-3.2 -2.4,-0.4 -4.7,-0.8 -6.8,-1.2 -4.8,-1 -8.6,-1.7 -11.6,-2.3 -1,-0.2 -2.4,-0.5 -3.1,-0.7 -3,-0.6 -4.8,-1 -4.8,-1 -27.5,-6.3 -55.7,-12.3 -84.4,-18.1 -9.1,-1.8 -18.6,-3.5 -27.9,-5.3 -19.8,-3.8 -39.6,-7.6 -60,-11.2 -11,-2 -22.2,-3.7 -33.4,-5.6 -19.1,-3.2 -38.1,-6.4 -57.6,-9.4 -11.8,-1.9 -23.9,-3.6 -35.9,-5.3 -19.1,-2.8 -38.2,-5.6 -57.7,-8.2 -12.3,-1.7 -24.9,-3.3 -37.3,-4.9 -19.5,-2.5 -39,-4.9 -58.6,-7.3 -12.4,-1.4 -24.9,-2.8 -37.4,-4.2 -20.2,-2.2 -40.4,-4.4 -60.7,-6.5 -12.2,-1.3 -24.4,-2.4 -36.6,-3.6 -20.9,-2 -41.8,-4 -62.9,-5.8 -11.9,-1.1 -23.8,-2.1 -35.8,-3.1 -7.2,-0.6 -14.5,-1.1 -21.7,-1.7 -6.5,-12.9 -15.3,-30.9 -26.1,-54.8 -22.9,-50.9 -53.7,-126.1 -84.6,-222 -61.7,-191.9 -123.5,-466.4 -123.5,-795.8 0,-64.7 3.2,-132.1 8.4,-200.8 7.2,-94.5 19.7,-192.4 38.9,-293.7 4.5,-1 8.9,-1.9 13.4,-2.9 3.8,-0.8 7.6,-1.6 11.4,-2.4 13.4,-2.8 27,-5.7 40.5,-8.6 19.1,-4 38.2,-8 57.5,-12 15.8,-3.3 31.6,-6.5 47.5,-9.8 19.6,-3.9 39.2,-7.8 59,-11.7 15.5,-3.1 31,-6.1 46.5,-9 20.4,-3.9 40.9,-7.6 61.4,-11.4 15,-2.7 30,-5.4 45,-8 21.7,-3.8 43.3,-7.3 65,-10.7 13.8,-2.3 27.6,-4.6 41.4,-6.7 25.4,-3.8 50.7,-7.2 76,-10.6 9.9,-1.3 19.9,-2.8 29.8,-4.1 35.1,-4.3 70,-8.2 104.5,-11.4 6.6,-0.6 13,-0.9 19.5,-1.4 27.8,-2.4 55.5,-4.5 82.9,-6 11.6,-0.6 22.9,-0.8 34.4,-1.2 22,-0.8 43.8,-1.6 65.3,-1.7 26.3,-0.2 52.5,0 78,0.9 1.4,0.1 2.7,0.2 4.1,0.3 25.4,1 50.3,2.8 74.8,5.1 7.3,0.7 14.5,1.5 21.7,2.3 20.6,2.2 40.8,5 60.6,8.3 5.4,0.9 10.9,1.6 16.2,2.5 24.3,4.4 47.9,9.6 70.8,15.6 5.2,1.3 10.2,3 15.3,4.4 18.2,5.1 35.9,10.8 53.2,17.1 6.1,2.2 12.2,4.4 18.2,6.8 21.2,8.4 41.9,17.4 61.5,27.7 0.1,0 0.1,0.1 0.2,0.1 21.4,11.3 41.7,23.4 61.4,36 6.3,4 12.3,8.3 18.4,12.5 13.2,8.9 26.1,18 38.5,27.5 6.5,5.1 13,10.2 19.3,15.3 11.7,9.6 22.9,19.4 33.8,29.4 5.6,5.1 11.3,10.2 16.7,15.4 14.5,14.1 28.5,28.6 41.6,43.5 4.1,4.6 7.8,9.4 11.7,14 4.8,5.7 9.4,11.5 14.1,17.3 -64.9,-18.6 -128,-26.6 -187.5,-26.6 -142.6,0.1 -264.6,44 -351,87.3 -86.5,43.4 -137.9,86.7 -139.9,88.4 -19.7,16.6 -22.2,46.1 -5.6,65.9 16.7,19.7 46.2,22.2 65.9,5.6 l 0.2,-0.2 1.3,-1 5.8,-4.6 c 5.2,-4 13.2,-10 23.7,-17.2 21,-14.4 51.9,-33.8 90.6,-53.3 77.5,-39 185.9,-77.4 309,-77.3 76.6,0 159.2,16 245.4,54.8 9.7,4.4 19.2,7.8 28.9,12.8 33.7,65.2 59.3,134.2 77.3,205.4 5.6,22.4 10.5,44.9 14.8,67.7 8.5,45.4 14.3,91.4 17.6,137.6 3.3,46.1 4.2,92.4 2.9,138.3"
         style="fill:#f78d9e;fill-opacity:1;fill-rule:nonzero;stroke:none"
         id="path70" />
      <path
         d="m 12813.2,7882.2 c 11.3,74.4 23.4,148.3 36.4,221.6 1.3,6.9 2.6,13.8 3.8,20.8 13.4,74 27.5,147.4 42.6,220.1 1.2,5.6 2.4,11.2 3.6,16.9 2,9.2 4.2,18.2 6.2,27.5 -295.7,-232.5 -626.3,-390.8 -983.6,-467.4 -74.6,-16.1 -158.2,-28.8 -248.5,-38.6 15.1,-85 30.9,-174.3 47.2,-267.3 3.8,-21.5 7.5,-43.1 11.3,-65 16.3,-93.1 32.9,-189.6 49.8,-289.3 2.3,-13.4 4.6,-26.8 6.9,-40.3 37.9,-223.8 77.3,-462.4 116.8,-710.6 9.4,-59.3 18.8,-119 28.2,-179.2 18.9,-120.6 37.6,-243 56.2,-366.8 2.2,-15 4.5,-29.9 6.7,-44.9 38.2,-256.1 75.4,-517.4 110.3,-779.1 3.2,-23.6 6.3,-47.1 9.4,-70.7 10.2,-77.3 20.2,-154.5 29.9,-231.6 1.5,-11.9 3,-23.7 4.5,-35.5 10.3,-82.5 20.4,-164.8 30.1,-246.7 17.8,-150.4 34.6,-299.7 49.9,-446.8 8.6,-82.1 16.8,-163.6 24.5,-244.3 0.8,-8.5 1.6,-17 2.4,-25.4 7.7,-81.5 14.9,-162 21.6,-241.6 3.9,-47.4 7.8,-94.5 11.4,-141.1 19.8,-257.6 33.5,-502.6 39.5,-728.6 1,-37.7 1.8,-74.8 2.4,-111.4 0.5,-36.6 0.9,-72.7 1,-108.1 0.1,-35.5 0,-70.3 -0.4,-104.6 -0.2,-20.2 -0.7,-39.7 -1.1,-59.5 40.3,17.2 152.3,66.5 274.8,131.2 109.2,57.8 225.4,127.4 305.5,197.4 -83.7,559.5 -423.7,3084 -99.3,5208.9"
         style="fill:#de8940;fill-opacity:1;fill-rule:nonzero;stroke:none"
         id="path72" />
      <path
         d="m 14268.4,19749.4 c 0.2,521.7 149,908.8 220.3,1064.5 -226.2,-15.1 -453.4,-21.2 -659.2,-21.2 -289,0 -535.3,12 -677.6,27.9 -0.8,-0.1 -1.5,-0.5 -2.4,-0.6 l -6.7,-0.1 c -22,0.1 -59.9,3.6 -109.5,8.8 -49.1,5.2 -107.9,12.1 -164.4,19.1 -54.9,6.6 -107.4,13.3 -147.2,18.4 -137.4,3.1 -455.1,56 -455.1,56 l -165.1,605.3 c 0,0 154.1,165.1 44,275.1 -22.8,22.9 -51.4,32.5 -82.6,32.5 -118.6,0 -274.1,-138.8 -291.5,-208.6 -22.1,-88 176,-143 176,-143 0,0 104.7,-723.5 170.8,-1762.3 2.6,-41.6 5.2,-83.8 7.7,-126.4 0.8,-13.2 1.6,-26.6 2.3,-39.9 2,-35 4,-70.2 5.9,-105.8 0.8,-14.7 1.6,-29.3 2.3,-44.1 2.1,-39.3 4.1,-78.9 6,-118.9 0.4,-9.5 0.9,-18.8 1.3,-28.4 2.4,-50.8 4.6,-102.2 6.8,-154.1 0.2,-5.7 0.4,-11.5 0.6,-17.3 1.8,-45.3 3.5,-90.9 5.1,-136.9 0.5,-13.6 0.9,-27.2 1.4,-40.8 1.3,-39.9 2.5,-80.1 3.7,-120.5 0.3,-13.8 0.7,-27.5 1.1,-41.3 1.3,-46.9 2.4,-94.2 3.4,-141.7 0.1,-6.1 0.3,-12.2 0.4,-18.3 1.1,-55.3 2,-111 2.7,-166.9 3.6,-272 2.5,-551.9 -4.8,-835.3 -2.5,-95 -5.7,-190.4 -9.6,-286 -0.1,-2.2 -0.2,-4.4 -0.2,-6.6 -4,-95.2 -8.7,-190.7 -14.2,-286.2 -0.2,-2.6 -0.3,-5.2 -0.4,-7.8 -5.6,-95.5 -12,-191 -19.2,-286.4 -0.2,-2.5 -0.3,-5 -0.5,-7.5 -7.3,-95.3 -15.5,-190.4 -24.6,-285.3 -21.8,-227.5 -49.1,-453.2 -82.4,-675 -13.6,-90.3 -28.2,-180 -43.9,-268.9 -1.7,-9.5 -3.4,-19.1 -5.1,-28.6 -16.1,-89.4 -33.3,-177.9 -51.6,-265.3 -1.7,-8.3 -3.4,-16.6 -5.2,-24.9 -18.9,-89.3 -39.2,-177.5 -60.6,-264.5 -1.5,-5.7 -2.8,-11.5 -4.2,-17.3 -22.5,-90.2 -46.4,-179 -71.7,-266.3 -14.1,-48.3 -28.4,-96.3 -43.4,-143.6 -42.2,-133.8 -94.4,-252.6 -150.5,-361.7 v 0 c -14.4,-28 -29,-55.2 -43.8,-82 -3.5,-6.4 -7,-12.6 -10.5,-18.8 -12,-21.6 -24.2,-42.9 -36.3,-63.8 -2.9,-4.9 -5.7,-9.9 -8.5,-14.8 -33.1,-56.5 -66.2,-111 -98.4,-164.4 -10.3,-17 -20.3,-33.9 -30.4,-50.7 -4.1,-7 -8.4,-14 -12.4,-20.9 -13.3,-22.6 -26.3,-45 -38.9,-67.3 -3.3,-5.8 -6.4,-11.5 -9.6,-17.3 -9.9,-17.6 -19.4,-35.3 -28.7,-52.9 -3.6,-6.7 -7.1,-13.4 -10.5,-20.1 -11.9,-23.1 -23.4,-46.2 -34.1,-69.4 -23.7,-4 -49,-8.4 -75.1,-12.9 -3.3,-0.6 -6.8,-1.2 -10.2,-1.8 -31.8,-5.5 -64.8,-11.2 -99.9,-17.3 -1.9,-0.3 -3.8,-0.7 -5.7,-1 -63.8,-11 -133.1,-22.7 -207.1,-34.8 -7.2,-1.1 -14.3,-2.3 -21.6,-3.5 -21.8,-3.5 -44,-7 -66.6,-10.5 -8.8,-1.4 -17.7,-2.7 -26.5,-4.1 -22.7,-3.5 -45.5,-7 -69,-10.5 v 0 c -82.9,-12.3 -170.8,-24.4 -262.8,-35.9 -55.2,-6.9 -112.1,-13.5 -170.4,-19.8 -12.1,-1.3 -24,-2.7 -36.2,-3.9 -9.4,-1 -19.1,-1.9 -28.5,-2.9 22.8,-150.7 45.9,-305.7 69,-462.6 16,-108.7 31.9,-218.2 47.7,-328.4 44.1,-306.4 87,-616.3 126.2,-917.1 109.1,-835.9 190.1,-1601.1 187.2,-2021.7 -1.1,-152.1 -2.6,-297.3 -6.1,-435.1 -5.5,-213.3 -16,-408.5 -38.1,-581.5 -12.6,-210.3 -65,-494.4 -171,-795.4 32.2,-174.5 66.9,-369.6 103,-584.8 16.6,-98.6 33.5,-201.3 50.5,-307.8 17,-106.5 34.2,-216.9 51.5,-330.9 25.9,-171 52,-350.3 77.8,-537.1 17.2,-124.6 34.3,-252.5 51.2,-383.5 123.3,-957.8 234.8,-2084.7 290.5,-3302.5 143.9,36 456.6,125.7 597.5,253.3 -6.2,42.5 -13.4,92.8 -21.4,151 -4.5,32.7 -9.2,67.7 -14.1,105 -2.4,18.6 -4.9,37.8 -7.5,57.6 -7.6,59.2 -15.6,123.4 -23.8,192.1 -11,91.6 -22.4,191.3 -33.8,298.1 -11.4,106.8 -22.8,220.8 -33.9,340.9 -2.8,30.1 -5.5,60.5 -8.2,91.3 -5.5,61.6 -10.8,124.7 -16,189.1 -7.8,96.7 -15.3,196.5 -22.2,298.9 -4.6,68.4 -9.1,137.9 -13.2,208.4 -2.1,35.3 -4.1,70.9 -6,106.7 -3.9,71.7 -7.5,144.3 -10.7,217.9 -3.3,73.5 -6.2,148 -8.7,223.3 -2.6,75.2 -4.7,151.3 -6.4,228 -0.9,38.3 -1.7,76.8 -2.3,115.5 -1.3,77.4 -2.2,155.3 -2.5,233.8 -0.5,117.7 0.1,236.5 1.9,356 0.6,39.8 1.4,79.7 2.3,119.7 2.7,119.9 6.8,240.5 12.3,361.2 1.8,40.2 3.8,80.5 6,120.7 8.6,161.1 20,322.2 34.5,482.6 7.2,80.1 15.2,160.1 24,239.7 8.8,79.6 18.4,158.9 28.9,237.8 21,157.7 45.4,313.6 73.6,466.8 136.5,9.2 260.3,24.9 368.5,48.1 140.8,30.2 274,72.9 399.8,126.3 42,17.8 83.1,36.7 123.4,56.8 80.7,40.2 158.2,84.9 232.4,133.5 297.2,194.3 543.7,451.6 744,737.1 450.7,642.4 667.1,1427.6 697.5,1960.5 24.5,189.3 38.2,402.1 46.2,628.2 6,169.5 8.7,346.4 10.5,526.5 0.5,60.1 1,120.4 1.4,181 4.6,677.8 -114.1,1976.2 -243.8,3266.6 -9.7,95.6 -19.3,191.1 -29,286.3 -19.4,190.5 -38.8,379.8 -57.9,565.8 -9.6,93.1 -19.1,185.3 -28.4,276.4 -14.1,136.7 -27.8,271.1 -41.2,402.1 -4.4,43.7 -8.8,87 -13.1,130 -21.8,214.6 -42.1,419.4 -60.5,610.4 -3.6,38.2 -7.2,75.8 -10.7,112.9 -28,296.4 -50.3,555.3 -64.1,760.4 -1.8,25.6 -3.4,50.4 -4.8,74.3 -7.3,119.6 -11.1,217.4 -10.7,289.4 0.1,20.3 0.7,37.8 1.5,53.9 -59.5,-8 -126.5,-14.3 -191.4,-14.4 -45.6,0 -90.2,3.1 -131.4,11.4 -41.2,8.4 -79.4,21.7 -111.3,45.9 -76.2,58.5 -123.8,135.4 -154,199.2 -1.1,2.3 -2.7,4.9 -3.7,7.3 -30,65.2 -41.1,115.5 -41.6,117.8 -5.6,25.2 10.4,50.1 35.6,55.7 25.2,5.5 50.2,-10.4 55.7,-35.6 l 0.3,-1.3 1.4,-5.3 c 0.6,-2.6 1.6,-6 2.7,-9.9 1,-3.3 2,-6.9 3.3,-10.9 5.6,-18 14.6,-43.2 27.6,-71.5 25.9,-56.6 68.2,-124.5 129.5,-171.2 14.9,-11.6 40.4,-22.1 73,-28.5 32.5,-6.6 71.6,-9.6 112.9,-9.5 73.7,-0.1 153.6,9.1 219.4,19.4 1.5,1.3 3.5,2.2 5,3.4 2.4,1.8 5.1,3.4 7.8,5 6.7,4.2 14.2,7.9 22.6,11 3.2,1.1 6.2,2.4 9.6,3.4 11.9,3.6 24.9,6.5 39.5,8.3 1,0.1 2.1,0.1 3,0.2 14,1.6 29.4,2.3 45.6,2.4 5.2,0.1 10.7,0 16.1,-0.1 13.7,-0.2 28.1,-0.8 43.1,-1.9 5.4,-0.3 10.6,-0.6 16.1,-1 20.4,-1.8 41.7,-4 64.2,-6.9 3.1,-0.4 6.4,-1 9.6,-1.4 20.1,-2.7 41,-5.9 62.7,-9.5 7.1,-1.1 14.5,-2.4 21.8,-3.6 19.9,-3.4 40.4,-7.1 61.5,-11.1 5.8,-1.1 11.5,-2.1 17.5,-3.3 27.2,-5.2 55.2,-10.8 83.9,-16.7 4.2,-0.8 8.5,-1.8 12.6,-2.6 26.3,-5.5 53.2,-11.1 80.6,-17 6.3,-1.3 12.6,-2.7 19,-4.1 18.2,-3.9 36.5,-7.8 55.1,-11.8 -6.1,34.7 -11.8,69.2 -16.5,103.1 -17.6,129.2 -25.8,253.2 -25.8,370.1"
         style="fill:#fbc445;fill-opacity:1;fill-rule:nonzero;stroke:none"
         id="path74" />
      <path
         d="m 12981.8,19345.9 c 11.8,-40.9 18,-84.1 15.7,-130 -1.6,-31.7 -6,-68.1 -12.6,-107.5 14,-199.7 50.9,-398.9 72.4,-597.2 112.2,12.5 326.5,-102.9 420.5,-343.5 116.1,-297.2 -149.1,-528.3 -281.2,-643.8 -12.1,-10.6 -26.7,-18.1 -42.3,-24.2 25.2,-256.7 50.9,-513.4 78.6,-769.8 12.9,-119.5 26.5,-239 39.7,-358.4 90,-71.7 184,-201.2 233.9,-382.9 52.9,-192.7 -28.4,-324 -143.5,-425.5 21.2,-187.2 42.4,-374.5 63.6,-561.7 54.5,-482.1 118.4,-964.6 152.8,-1448.6 48.4,-681.8 35.8,-1374.2 -87.6,-2047.9 -119.8,-653.8 -363.1,-1337.1 -865.3,-1796.7 -557.5,-510.3 -1334.1,-603.8 -2067.4,-571.7 -5.5,-213.3 -16,-408.5 -38.1,-581.5 -12.6,-210.3 -65,-494.4 -171,-795.4 32.2,-174.5 66.9,-369.6 103,-584.8 16.6,-98.6 33.5,-201.3 50.5,-307.8 17,-106.5 34.2,-216.9 51.5,-330.9 25.9,-171 52,-350.3 77.8,-537.1 17.2,-124.6 34.3,-252.5 51.2,-383.5 123.3,-957.8 234.8,-2084.7 290.5,-3302.5 143.9,36 456.6,125.7 597.5,253.3 -6.2,42.5 -13.4,92.8 -21.4,151 -4.5,32.7 -9.2,67.7 -14.1,105 -2.4,18.6 -4.9,37.8 -7.5,57.6 -7.6,59.2 -15.6,123.4 -23.8,192.1 -11,91.6 -22.4,191.3 -33.8,298.1 -11.4,106.8 -22.8,220.8 -33.9,340.9 -2.8,30.1 -5.5,60.5 -8.2,91.3 -5.5,61.6 -10.8,124.7 -16,189.1 -7.8,96.7 -15.3,196.5 -22.2,298.9 -4.6,68.4 -9.1,137.9 -13.2,208.4 -2.1,35.3 -4.1,70.9 -6,106.7 -3.9,71.7 -7.5,144.3 -10.7,217.9 -3.3,73.5 -6.2,148 -8.7,223.3 -2.6,75.2 -4.7,151.3 -6.4,228 -0.9,38.3 -1.7,76.8 -2.3,115.5 -1.3,77.4 -2.2,155.3 -2.5,233.8 -0.5,117.7 0.1,236.5 1.9,356 0.6,39.8 1.4,79.7 2.3,119.7 2.7,119.9 6.8,240.5 12.3,361.2 1.8,40.2 3.8,80.5 6,120.7 8.6,161.1 20,322.2 34.5,482.6 7.2,80.1 15.2,160.1 24,239.7 8.8,79.6 18.4,158.9 28.9,237.8 21,157.7 45.4,313.6 73.6,466.8 136.5,9.2 260.3,24.9 368.5,48.1 140.8,30.2 274,72.9 399.8,126.3 42,17.8 83.1,36.7 123.4,56.8 80.7,40.2 158.2,84.9 232.4,133.5 297.2,194.3 543.7,451.6 744,737.1 450.7,642.4 667.1,1427.6 697.5,1960.5 24.5,189.3 38.2,402.1 46.2,628.2 6,169.5 8.7,346.4 10.5,526.5 0.5,60.1 1,120.4 1.4,181 4.6,677.8 -114.1,1976.2 -243.8,3266.6 -9.7,95.6 -19.3,191.1 -29,286.3 -19.4,190.5 -38.8,379.8 -57.9,565.8 -9.6,93.1 -19.1,185.3 -28.4,276.4 -14.1,136.7 -27.8,271.1 -41.2,402.1 -4.4,43.7 -8.8,87 -13.1,130 -21.8,214.6 -42.1,419.4 -60.5,610.4 -3.6,38.2 -7.2,75.8 -10.7,112.9 -28,296.4 -50.3,555.3 -64.1,760.4 -1.8,25.6 -3.4,50.4 -4.8,74.3 -7.3,119.6 -11.1,217.4 -10.7,289.4 0.1,20.3 0.7,37.8 1.5,53.9 -59.5,-8 -126.5,-14.3 -191.4,-14.4 -45.6,0 -90.2,3.1 -131.4,11.4 -41.2,8.4 -79.4,21.7 -111.3,45.9 -76.2,58.5 -123.8,135.4 -154,199.2 -8.7,-39.5 -13.2,-80 -15.6,-118.8 -0.3,-4.1 -0.1,-8.2 -0.3,-12.3"
         style="fill:#eb973f;fill-opacity:1;fill-rule:nonzero;stroke:none"
         id="path76" />
      <path
         d="m 13886.4,19357.3 c 3.1,-0.4 6.4,-1 9.6,-1.4 20.1,-2.7 41,-5.9 62.7,-9.5 7.1,-1.1 14.5,-2.4 21.8,-3.6 19.9,-3.4 40.4,-7.1 61.5,-11.1 5.8,-1.1 11.5,-2.1 17.5,-3.3 27.2,-5.2 55.2,-10.8 83.9,-16.7 4.2,-0.8 8.5,-1.8 12.6,-2.6 26.3,-5.5 53.2,-11.1 80.6,-17 6.3,-1.3 12.6,-2.7 19,-4.1 18.2,-3.9 36.5,-7.8 55.1,-11.8 -6.1,34.7 -11.8,69.2 -16.5,103.1 -236.9,202.5 -521.6,357.9 -833.1,372.3 -127.3,5.8 -280.2,-0.5 -375.7,-97.4 -14.5,-14.7 -26.5,-31.3 -37.3,-48.5 1,-3.3 2,-6.9 3.3,-10.9 5.6,-18 14.6,-43.2 27.6,-71.5 25.9,-56.6 68.2,-124.5 129.5,-171.2 14.9,-11.6 40.4,-22.1 73,-28.5 32.5,-6.6 71.6,-9.6 112.9,-9.5 73.7,-0.1 153.6,9.1 219.4,19.4 1.5,1.3 3.5,2.2 5,3.4 2.4,1.8 5.1,3.4 7.8,5 6.7,4.2 14.2,7.9 22.6,11 3.2,1.1 6.2,2.4 9.6,3.4 11.9,3.6 24.9,6.5 39.5,8.3 1,0.1 2.1,0.1 3,0.2 14,1.6 29.4,2.3 45.6,2.4 5.2,0.1 10.7,0 16.1,-0.1 13.7,-0.2 28.1,-0.8 43.1,-1.9 5.4,-0.3 10.6,-0.6 16.1,-1 20.4,-1.8 41.7,-4 64.2,-6.9"
         style="fill:#eb973f;fill-opacity:1;fill-rule:nonzero;stroke:none"
         id="path78" />
      <path
         d="m 12445.7,18283.2 c 247.6,-89.4 482,485.1 539.2,825.2 6.6,39.4 11,75.8 12.6,107.5 2.3,45.9 -3.9,89.1 -15.7,130 -67.1,231.7 -339.1,383.4 -577.6,439.5 -106,25 -204.8,-5.4 -286.7,-52.9 0.2,-3.7 0.5,-7.6 0.7,-11.3 2.6,-41.6 5.2,-83.8 7.7,-126.4 0.8,-13.2 1.6,-26.6 2.3,-39.9 2,-35 4,-70.2 5.9,-105.8 0.8,-14.7 1.6,-29.3 2.3,-44.1 2.1,-39.3 4.1,-78.9 6,-118.9 0.4,-9.5 0.9,-18.8 1.3,-28.4 2.4,-50.8 4.6,-102.2 6.8,-154.1 0.2,-5.7 0.4,-11.5 0.6,-17.3 1.8,-45.3 3.5,-90.9 5.1,-136.9 0.5,-13.6 0.9,-27.2 1.4,-40.8 1.3,-39.9 2.5,-80.1 3.7,-120.5 0.3,-13.8 0.7,-27.5 1.1,-41.3 1.3,-46.9 2.4,-94.2 3.4,-141.7 0.1,-6.1 0.3,-12.2 0.4,-18.3 1.1,-55.3 2,-111 2.7,-166.9 0,-1.7 0.1,-3.3 0.1,-4.9 84.5,-48.6 180.5,-97.1 276.7,-131.8"
         style="fill:#7a4643;fill-opacity:1;fill-rule:nonzero;stroke:none"
         id="path80" />
      <path
         d="m 12645.8,17755 c 50.5,-164.9 354.1,-315.5 508.5,-255.3 15.6,6.1 30.2,13.6 42.3,24.2 132.1,115.5 397.3,346.6 281.2,643.8 -94,240.6 -308.3,356 -420.5,343.5 -26.3,-2.9 -47.1,-12.8 -59.3,-29.9 0,0 -407.8,-544.7 -352.2,-726.3"
         style="fill:#7a4643;fill-opacity:1;fill-rule:nonzero;stroke:none"
         id="path82" />
      <path
         d="m 12390.1,16236.2 c 250,-16.5 443.3,445.7 492.9,693.4 49.5,247.6 -379.7,561.2 -547.4,660.3 -50.9,30 -111.6,22 -171.5,-3.7 0,-0.5 0,-1.1 0,-1.6 -2.5,-95 -5.7,-190.4 -9.6,-286 -0.1,-2.2 -0.2,-4.4 -0.2,-6.6 -4,-95.2 -8.7,-190.7 -14.2,-286.2 -0.2,-2.6 -0.3,-5.2 -0.4,-7.8 -5.6,-95.5 -12,-191 -19.2,-286.4 -0.2,-2.5 -0.3,-5 -0.5,-7.5 -7.3,-95.3 -15.5,-190.4 -24.6,-285.3 -0.2,-1.9 -0.3,-3.8 -0.5,-5.7 85.8,-90.2 190.2,-169.9 295.2,-176.9"
         style="fill:#7a4643;fill-opacity:1;fill-rule:nonzero;stroke:none"
         id="path84" />
      <path
         d="m 13073.5,16417.8 c 0,0 -477.2,-412.7 -432.9,-676.8 44.3,-264.1 243.8,-511.7 432.9,-379.7 84,58.7 197.5,120.7 289.5,201.8 115.1,101.5 196.4,232.8 143.5,425.5 -49.9,181.7 -143.9,311.2 -233.9,382.9 -81.7,65.1 -160.1,82.7 -199.1,46.3"
         style="fill:#7a4643;fill-opacity:1;fill-rule:nonzero;stroke:none"
         id="path86" />
      <path
         d="m 12123.6,14658.5 c 214.6,125 424,257.1 360.6,603.8 -41.8,228 -279.4,442.8 -468.7,496.6 -0.8,-5 -1.7,-10 -2.5,-15.1 -13.6,-90.3 -28.2,-180 -43.9,-268.9 -1.7,-9.5 -3.4,-19.1 -5.1,-28.6 -16.1,-89.4 -33.3,-177.9 -51.6,-265.3 -1.7,-8.3 -3.4,-16.6 -5.2,-24.9 -18.9,-89.3 -39.2,-177.5 -60.6,-264.5 -1.5,-5.7 -2.8,-11.5 -4.2,-17.3 -22.5,-90.2 -46.4,-179 -71.7,-266.3 -0.5,-1.5 -0.8,-3.1 -1.3,-4.6 107.2,-25.6 215,-25.9 354.2,55.1"
         style="fill:#7a4643;fill-opacity:1;fill-rule:nonzero;stroke:none"
         id="path88" />
      <path
         d="m 12750.9,13701.5 c 148.6,141.1 561.3,256.6 396.2,504.3 -165.1,247.6 -444.4,517 -651.4,382.3 0,0 -162.7,-134.7 -160.1,-398.8 2.6,-264.2 266.7,-628.9 415.3,-487.8"
         style="fill:#7a4643;fill-opacity:1;fill-rule:nonzero;stroke:none"
         id="path90" />
      <path
         d="m 12760.5,12455.9 c 122.5,214.6 174.6,445.7 0,577.8 -174.7,132.1 -521.4,0 -521.4,0 0,0 -264.1,-379.7 -99,-577.8 165.1,-198.1 497.9,-214.6 620.4,0"
         style="fill:#7a4643;fill-opacity:1;fill-rule:nonzero;stroke:none"
         id="path92" />
      <path
         d="m 11149.6,12885.1 c 363.2,33 843.6,427.7 743.7,816.4 -60.1,234.1 -208.2,347.7 -316.5,401.2 v 0 c -14.4,-28 -29,-55.2 -43.8,-82 -3.5,-6.4 -7,-12.6 -10.5,-18.8 -12,-21.6 -24.2,-42.9 -36.3,-63.8 -2.9,-4.9 -5.7,-9.9 -8.5,-14.8 -33.1,-56.5 -66.2,-111 -98.4,-164.4 -10.3,-17 -20.3,-33.9 -30.4,-50.7 -4.1,-7 -8.4,-14 -12.4,-20.9 -13.3,-22.6 -26.3,-45 -38.9,-67.3 -3.3,-5.8 -6.4,-11.5 -9.6,-17.3 -9.9,-17.6 -19.4,-35.3 -28.7,-52.9 -3.6,-6.7 -7.1,-13.4 -10.5,-20.1 -11.9,-23.1 -23.4,-46.2 -34.1,-69.4 -23.7,-4 -49,-8.4 -75.1,-12.9 -3.3,-0.6 -6.8,-1.2 -10.2,-1.8 -31.8,-5.5 -64.8,-11.2 -99.9,-17.3 -1.9,-0.3 -3.8,-0.7 -5.7,-1 -63.8,-11 -133.1,-22.7 -207.1,-34.8 -7.2,-1.1 -14.3,-2.3 -21.6,-3.5 -21.8,-3.5 -44,-7 -66.6,-10.5 -8.8,-1.4 -17.7,-2.7 -26.5,-4.1 -22.7,-3.5 -45.5,-7 -69,-10.5 v 0 0 c 4.9,-115.6 153.4,-511.8 516.6,-478.8"
         style="fill:#7a4643;fill-opacity:1;fill-rule:nonzero;stroke:none"
         id="path94" />
      <path
         d="m 10384.9,13329.8 c -4.8,-0.6 -9.9,-1.2 -14.7,-1.8 -55.2,-6.9 -112.1,-13.5 -170.4,-19.8 -12.1,-1.3 -24,-2.7 -36.2,-3.9 -9.4,-1 -19.1,-1.9 -28.5,-2.9 22.8,-150.7 45.9,-305.7 69,-462.6 49.7,43.5 96.4,86.9 138.6,128.9 133.7,132.7 107.2,262.3 42.2,362.1"
         style="fill:#7a4643;fill-opacity:1;fill-rule:nonzero;stroke:none"
         id="path96" />
      <path
         d="m 10803,11548 c 280.6,198.1 627.3,150.1 544.7,545.5 -82.5,395.4 -702,675.7 -825.4,603.2 0,0 -143.5,-70.1 -270.5,-186.3 44.1,-306.4 87,-616.3 126.2,-917.1 132.1,-107.2 284.7,-144.3 425,-45.3"
         style="fill:#7a4643;fill-opacity:1;fill-rule:nonzero;stroke:none"
         id="path98" />
      <path
         d="m 12893.3,20690.5 c -71.8,0 -130,-80 -130,-178.7 0,-98.7 58.2,-178.7 130,-178.7 71.8,0 130,80 130,178.7 0,98.7 -58.2,178.7 -130,178.7"
         style="fill:#211414;fill-opacity:1;fill-rule:nonzero;stroke:none"
         id="path100" />
      <path
         d="m 13310.1,20397.4 c 58.1,0 105.2,64.7 105.2,144.7 0,79.9 -47.1,144.7 -105.2,144.7 -58.1,0 -105.2,-64.8 -105.2,-144.7 0,-80 47.1,-144.7 105.2,-144.7"
         style="fill:#211414;fill-opacity:1;fill-rule:nonzero;stroke:none"
         id="path102" />
      <path
         d="m 11924.2,18809.2 c -97.8,0 -163.8,0 -163.8,0 0,0 -49.2,-1034.5 -46.6,-1188.6 l 210.3,-121 h -210.4 c 0,0 24.6,-2154.8 -85.4,-2451.9 l 98.8,-63.6 c 450.8,1892.8 300.2,4388.9 177.4,5659.8 -56.5,-39.2 -110.5,-94.5 -144.1,-172.9 -99.1,-231.1 -11.1,-1353.7 0,-1562.8 0,0 261.5,-99 163.8,-99"
         style="fill:#eb6d2e;fill-opacity:1;fill-rule:nonzero;stroke:none"
         id="path104" />
      <path
         d="m 11595.8,14505.9 c 45.1,142.9 85.8,290.9 122.7,442.7 h -90.2 c 0,0 -34.2,-268.8 -72.7,-556.6 14.1,36.8 27.7,74.5 40.2,113.9"
         style="fill:#eb6d2e;fill-opacity:1;fill-rule:nonzero;stroke:none"
         id="path106" />
      <path
         d="m 4470.08,10489.3 c 39.84,17.9 81.11,33.9 124.86,46.6 83,485.8 296.04,1099.3 852.24,1628 130.14,384.8 278.69,669.7 279.38,671.2 v 0 c 11.95,22.9 40.21,31.7 63.11,19.8 22.9,-12 31.78,-40.2 19.82,-63.1 0,0 -2.93,-5.6 -8.57,-16.9 -5.65,-11.2 -13.91,-27.8 -24.27,-49.3 -20.73,-43 -49.86,-105.4 -83.26,-182.6 -66.83,-154.4 -150.75,-367.9 -218.84,-603.6 -0.35,-1.2 -1.25,-2 -1.7,-3.2 -108.86,-464.9 -112.06,-964.6 -69.42,-1418.5 55.87,-14.6 95.62,-27.6 112.12,-33.3 382.91,-90.3 792.41,-136.1 1217.31,-136.1 583.87,0 1079.6,86.1 1375.79,137.6 7.32,1.3 14.54,2.5 21.65,3.8 23.54,40.2 50.52,78.6 78.22,116.3 7.73,130.4 17.68,492.5 24.19,819.5 l -28.01,13 23.8,89.6 c 14.86,56 7.78,246 -11.16,493.5 -94.61,-159.3 -326.55,-239.8 -484.86,-341.6 -231.12,-148.5 -462.23,99.1 -544.77,617 -82.54,518 660.32,586.2 660.32,586.2 144.02,27.5 236.74,-124.3 324.95,-374 -25.08,245.6 -54.39,499.9 -81.8,716.1 l -14.05,110.8 1.45,0.2 c -0.2,2 -0.43,4.4 -0.64,6.5 -168.18,26.4 -338.68,58.7 -511.31,99.7 0,0 -4.78,1.7 -12.73,4.4 -11.09,-60.1 -41.9,-121.9 -102.07,-182.1 -264.12,-264.1 -478.72,-907.9 -825.39,-759.4 -264.99,113.6 -606.74,404 -642.66,717.6 -27.95,-32.8 -55.24,-69.5 -81.73,-110.4 -452.87,-211.5 -1279.09,-784.4 -1431.97,-2623.3"
         style="fill:#fbc445;fill-opacity:1;fill-rule:nonzero;stroke:none"
         id="path108" />
      <path
         d="m 12739.1,20958.3 c 17.9,-2.3 37.9,-4.9 59.7,-7.6 51.2,-6.4 110.3,-13.7 165.6,-20.1 -94.1,177.2 -220.1,563.5 -246.6,651.9 -33,110.1 110.1,253.1 88.1,407.2 -6,41.9 -37.2,57.8 -80.4,57.8 -115.5,0 -316.8,-113.8 -348.9,-145.8 -44,-44 121.1,-187.1 176.1,-297.2 42,-83.9 141.4,-468.2 186.4,-646.2"
         style="fill:#fbc445;fill-opacity:1;fill-rule:nonzero;stroke:none"
         id="path110" />
      <path
         d="M 6292.77,6351.4 C 6184.9,5696.2 6158.72,5010.6 6167.74,4413.3 c 70.78,-654.1 140.34,-1252.8 200.5,-1691.5 123.98,-94.8 223.81,-184.2 300.62,-269.2 107.9,55 229.91,124.1 319.86,195.1 -9.58,163.4 -99.81,1791.8 -1.22,3581.5 -225.06,34.1 -458.69,75.3 -694.73,122.2"
         style="fill:#fbc445;fill-opacity:1;fill-rule:nonzero;stroke:none"
         id="path112" />
      <path
         d="m 7848.03,12883.2 c 0,0 -742.86,-68.2 -660.32,-586.2 82.54,-517.9 313.65,-765.5 544.77,-617 158.31,101.8 390.25,182.3 484.86,341.6 -11.28,147.5 -26.77,315.4 -44.36,487.6 -88.21,249.7 -180.93,401.5 -324.95,374"
         style="fill:#7a4643;fill-opacity:1;fill-rule:nonzero;stroke:none"
         id="path114" />
      <path
         d="m 6626.44,12505.4 c 346.67,-148.5 561.27,495.3 825.39,759.4 60.17,60.2 90.98,122 102.07,182.1 h 0.01 c -0.4,0.1 -1.03,0.3 -1.44,0.5 -1.01,0.3 -2.4,0.8 -3.51,1.2 -3.8,1.2 -8.06,2.6 -13.04,4.2 -1.94,0.7 -4.12,1.3 -6.24,2 -4.99,1.6 -10.41,3.3 -16.34,5.1 -2.73,0.9 -5.46,1.7 -8.37,2.6 -6.68,2 -13.93,4.1 -21.58,6.4 -2.71,0.8 -5.22,1.5 -8.05,2.3 -21.42,6.2 -46.17,12.9 -73.85,19.9 -3.89,1 -8.07,2 -12.08,3 -10.23,2.5 -20.72,5 -31.67,7.6 -4.95,1.2 -10.03,2.3 -15.11,3.5 -10.83,2.4 -21.94,4.9 -33.37,7.3 -5.35,1.2 -10.68,2.3 -16.16,3.4 -12.93,2.7 -26.24,5.3 -39.83,7.9 -4.21,0.8 -8.27,1.6 -12.54,2.4 -18.22,3.4 -36.9,6.6 -56.16,9.7 -1.9,0.3 -3.9,0.6 -5.82,0.9 -17.02,2.7 -34.39,5.2 -52.11,7.6 -6.01,0.9 -12.17,1.6 -18.26,2.4 -14.07,1.8 -28.26,3.5 -42.7,5 -7.1,0.8 -14.25,1.5 -21.43,2.2 -14.16,1.4 -28.46,2.7 -42.91,3.8 -7.17,0.6 -14.32,1.2 -21.56,1.7 -16.27,1.1 -32.73,2 -49.31,2.7 -5.4,0.2 -10.72,0.6 -16.15,0.8 -22.09,0.8 -44.39,1.2 -66.89,1.3 -16.01,0 -32.15,-0.3 -48.32,-0.7 -3.74,-0.1 -7.43,-0.1 -11.18,-0.3 -18.98,-0.6 -38.04,-1.5 -57.16,-2.8 -6.93,-0.5 -13.89,-1.2 -20.84,-1.7 -12.82,-1.1 -25.64,-2.1 -38.5,-3.4 -8.01,-0.9 -16.02,-2 -24.03,-3 -11.81,-1.4 -23.61,-2.8 -35.41,-4.6 -8.46,-1.2 -16.9,-2.7 -25.36,-4.1 -11.35,-1.9 -22.71,-3.8 -34.04,-6 -8.67,-1.6 -17.29,-3.6 -25.94,-5.4 -11.06,-2.4 -22.12,-4.8 -33.13,-7.5 -8.75,-2.1 -17.44,-4.4 -26.15,-6.7 -10.86,-2.9 -21.69,-5.9 -32.48,-9.1 -8.72,-2.6 -17.39,-5.4 -26.06,-8.2 -10.63,-3.4 -21.23,-7 -31.77,-10.8 -8.65,-3.1 -17.25,-6.3 -25.83,-9.6 -10.46,-4.1 -20.86,-8.4 -31.2,-12.8 -8.46,-3.6 -16.88,-7.3 -25.24,-11.1 -10.31,-4.7 -20.52,-9.7 -30.69,-14.8 -8.19,-4.2 -16.37,-8.3 -24.47,-12.6 -10.15,-5.5 -20.15,-11.3 -30.13,-17.2 -7.88,-4.6 -15.78,-9.2 -23.55,-14 -10.02,-6.3 -19.84,-13.1 -29.68,-19.8 -7.43,-5.1 -14.92,-10.1 -22.24,-15.4 -10.07,-7.4 -19.88,-15.3 -29.72,-23.1 -6.75,-5.4 -13.62,-10.6 -20.25,-16.2 -10.69,-9 -21.04,-18.8 -31.41,-28.5 -5.44,-5 -11.05,-9.8 -16.4,-15.1 -15.1,-14.8 -29.84,-30.4 -44.16,-46.7 -0.41,-0.4 -0.86,-0.8 -1.27,-1.3 l -7.1,-8.5 c 0.01,-0.1 0.05,-0.2 0.06,-0.3 35.92,-313.6 377.67,-604 642.66,-717.6"
         style="fill:#7a4643;fill-opacity:1;fill-rule:nonzero;stroke:none"
         id="path116" />
      <path
         d="m 8190.94,13324.7 166.97,-67.5 -157.25,-18 c 0,0 192.72,-1520 134.52,-1739.4 l 123.14,-56.8 -115.13,-13.1 c 0,0 -7.97,-401.5 -17.39,-666.4 77.72,108.4 140.01,219.3 142.44,359.3 9.9,571.6 19.69,1049.2 28.34,1470.5 41.29,2013.6 47.64,2323.1 -154.92,2699.2 -27.71,51.4 -96.93,139.3 -177.49,233.7 -61.79,-31.7 -138.2,-88.5 -168.98,-184 -55.32,-171.8 101.27,-957.2 126.4,-1104 0,0 203.48,-47.5 130.42,-55.9 -73.06,-8.4 -122.4,-14 -122.4,-14 0,0 46.97,-735 61.33,-843.6"
         style="fill:#eb6d2e;fill-opacity:1;fill-rule:nonzero;stroke:none"
         id="path118" />
      <path
         d="m 3157.18,7328.9 c -61.58,0 -136.27,40.1 -161.24,152.7 l -2.93,13.2 -0.31,13.5 c -0.05,2.4 -0.02,4.6 -0.07,6.9 -30.77,-36.6 -57.46,-100.8 -42.04,-211.7 28.61,-206.1 40.35,-506 0,-592.9 -29.07,-62.6 -0.25,-81.7 26.89,-81.7 10.53,0 20.81,2.8 27.35,7.2 23.36,15.5 246.85,189.3 305.83,409.7 0,0 -15.52,-149 0,-155.2 l 2.05,-0.4 c 18.07,0 72.82,72.6 81.76,242.5 5.29,100.4 -4.8,257.4 -70.31,356 -31.18,-105.9 -87.28,-159.8 -166.98,-159.8"
         style="fill:#eb6d2e;fill-opacity:1;fill-rule:nonzero;stroke:none"
         id="path120" />
      <path
         d="m 8294.08,16275.3 c 63.21,-31.5 296.8,-217.6 404.14,-304.2 19.92,11.3 44.08,25.1 69.99,40 25.45,14.6 52.35,30.2 77.92,45.1 -136.77,64.1 -386.99,239.4 -442.86,280.5 -69.6,51.3 -48.27,201.9 -131.15,284.6 -10.45,10.4 -21.63,15 -33.19,15 -80.21,0 -179.28,-221.4 -185.02,-261.9 -6.56,-46.4 157.34,-57.8 240.17,-99.1"
         style="fill:#fbc445;fill-opacity:1;fill-rule:nonzero;stroke:none"
         id="path122" />
      <path
         d="m 12229.5,5542.6 c -10,252.5 -10.6,508.2 10.8,761.4 -1.3,80.3 -0.4,160.5 3.7,240.3 18.1,353.8 113.7,699.7 307.9,998.2 76.4,117.5 164,225.5 259.1,326.4 0.7,4.5 1.5,8.9 2.2,13.3 11.3,74.4 23.4,148.3 36.4,221.6 1.3,6.9 2.6,13.8 3.8,20.8 13.4,74 27.5,147.4 42.6,220.1 1.2,5.6 2.4,11.2 3.6,16.9 2,9.2 4.2,18.2 6.2,27.5 -295.7,-232.5 -626.3,-390.8 -983.6,-467.4 -74.6,-16.1 -158.2,-28.8 -248.5,-38.6 15.1,-85 30.9,-174.3 47.2,-267.3 3.8,-21.5 7.5,-43.1 11.3,-65 16.3,-93.1 32.9,-189.6 49.8,-289.3 2.3,-13.4 4.6,-26.8 6.9,-40.3 37.9,-223.8 77.3,-462.4 116.8,-710.6 9.4,-59.3 18.8,-119 28.2,-179.2 18.9,-120.6 37.6,-243 56.2,-366.8 2.2,-15 4.5,-29.9 6.7,-44.9 38.2,-256.1 75.4,-517.4 110.3,-779.1 3.2,-23.6 6.3,-47.1 9.4,-70.7 10.2,-77.3 20.2,-154.5 29.9,-231.6 1.5,-11.9 3,-23.7 4.5,-35.5 10.3,-82.5 20.4,-164.8 30.1,-246.7 17.8,-150.4 34.6,-299.7 49.9,-446.8 8.6,-82.1 16.8,-163.6 24.5,-244.3 0.8,-8.5 1.6,-17 2.4,-25.4 7.7,-81.5 14.9,-162 21.6,-241.6 3.9,-47.4 7.8,-94.5 11.4,-141.1 19.8,-257.6 33.5,-502.6 39.5,-728.6 1,-37.7 1.8,-74.8 2.4,-111.4 0.5,-36.6 0.9,-72.7 1,-108.1 0.1,-35.5 0,-70.3 -0.4,-104.6 -0.2,-20.2 -0.7,-39.7 -1.1,-59.5 40.3,17.2 152.3,66.5 274.8,131.2 -22.6,182.5 -47.3,364.5 -72.6,545.6 -117.1,838.5 -271.1,1673.3 -304.9,2521.1"
         style="fill:#b1662f;fill-opacity:1;fill-rule:nonzero;stroke:none"
         id="path124" />
      <path
         d="m 16014.6,19396 c 4.1,4.6 7.8,9.4 11.7,14 4.8,5.7 9.4,11.5 14.1,17.3 -64.9,-18.6 -128,-26.6 -187.5,-26.6 -142.6,0.1 -264.6,44 -351,87.3 -86.5,43.4 -137.9,86.7 -139.9,88.4 -19.7,16.6 -22.2,46.1 -5.6,65.9 16.7,19.7 46.2,22.2 65.9,5.6 l 0.2,-0.2 1.3,-1 5.8,-4.6 c 5.2,-4 13.2,-10 23.7,-17.2 21,-14.4 51.9,-33.8 90.6,-53.3 77.5,-39 185.9,-77.4 309,-77.3 76.6,0 159.2,16 245.4,54.8 -76.1,78.7 -190.9,122.6 -293.8,147 -322.2,76.6 -650.6,-57.9 -963.2,-121 -161.5,-32.5 -317.6,-43.4 -470.9,-26.5 7.2,-94.5 19.7,-192.4 38.9,-293.7 4.5,-1 8.9,-1.9 13.4,-2.9 3.8,-0.8 7.6,-1.6 11.4,-2.4 13.4,-2.8 27,-5.7 40.5,-8.6 19.1,-4 38.2,-8 57.5,-12 15.8,-3.3 31.6,-6.5 47.5,-9.8 19.6,-3.9 39.2,-7.8 59,-11.7 15.5,-3.1 31,-6.1 46.5,-9 20.4,-3.9 40.9,-7.6 61.4,-11.4 15,-2.7 30,-5.4 45,-8 21.7,-3.8 43.3,-7.3 65,-10.7 13.8,-2.3 27.6,-4.6 41.4,-6.7 25.4,-3.8 50.7,-7.2 76,-10.6 9.9,-1.3 19.9,-2.8 29.8,-4.1 35.1,-4.3 70,-8.2 104.5,-11.4 6.6,-0.6 13,-0.9 19.5,-1.4 27.8,-2.4 55.5,-4.5 82.9,-6 11.6,-0.6 22.9,-0.8 34.4,-1.2 22,-0.8 43.8,-1.6 65.3,-1.7 26.3,-0.2 52.5,0 78,0.9 1.4,0.1 2.7,0.2 4.1,0.3 25.4,1 50.3,2.8 74.8,5.1 7.3,0.7 14.5,1.5 21.7,2.3 20.6,2.2 40.8,5 60.6,8.3 5.4,0.9 10.9,1.6 16.2,2.5 24.3,4.4 47.9,9.6 70.8,15.6 5.2,1.3 10.2,3 15.3,4.4 18.2,5.1 35.9,10.8 53.2,17.1 6.1,2.2 12.2,4.4 18.2,6.8 21.2,8.4 41.9,17.4 61.5,27.7 0.1,0 0.1,0.1 0.2,0.1 21.4,11.3 41.7,23.4 61.4,36 6.3,4 12.3,8.3 18.4,12.5 13.2,8.9 26.1,18 38.5,27.5 6.5,5.1 13,10.2 19.3,15.3 11.7,9.6 22.9,19.4 33.8,29.4 5.6,5.1 11.3,10.2 16.7,15.4 14.5,14.1 28.5,28.6 41.6,43.5"
         style="fill:#e0758a;fill-opacity:1;fill-rule:nonzero;stroke:none"
         id="path126" />
      <path
         d="m 15974.1,20148 c 34.2,0 61.9,51.9 61.9,115.9 0,64 -27.7,115.8 -61.9,115.8 -34.2,0 -61.9,-51.8 -61.9,-115.8 0,-64 27.7,-115.9 61.9,-115.9"
         style="fill:#211414;fill-opacity:1;fill-rule:nonzero;stroke:none"
         id="path128" />
      <path
         d="m 15590.4,20263.9 c 0,-64 27.7,-115.9 61.9,-115.9 34.2,0 61.9,51.9 61.9,115.9 0,64 -27.7,115.8 -61.9,115.8 -34.2,0 -61.9,-51.8 -61.9,-115.8"
         style="fill:#211414;fill-opacity:1;fill-rule:nonzero;stroke:none"
         id="path130" />
      <path
         d="m 11111.5,16598.1 c -228.3,-99.6 -364.9,-328.9 -524.3,-508.2 -77.2,-86.7 -160.6,-159.4 -252.9,-216.9 54.9,-63.6 115.8,-126.8 183.5,-188.1 329.2,155.5 677.8,359.5 798.8,615.9 7.5,15.9 14,31.7 20,47.5 0.2,0.6 0.4,1.3 0.7,2 1.9,5.3 3.6,10.5 5.4,15.7 3.4,9.9 6.6,19.8 9.5,29.6 0.4,1.5 0.7,3 1.1,4.5 1.7,5.9 3.3,11.9 4.7,17.9 2.1,8.2 3.9,16.5 5.6,24.7 0.5,2.7 1,5.5 1.5,8.2 1,5.6 2.2,11.2 3.1,16.8 1.1,7.4 1.9,14.8 2.8,22.2 0.8,6.6 1.6,13.1 2.2,19.7 0.1,1 0.2,2 0.3,3 0.4,4.7 0.5,9.3 0.7,13.9 0.2,3.8 0.3,7.6 0.4,11.4 0.1,1.8 0.2,3.7 0.3,5.5 -67.2,-88.9 -152.4,-142.5 -231,-173.2 -102.8,-40.4 -195.1,-44.4 -229.7,-44.4 -8.8,0 -13.9,0.3 -14.5,0.3 -19.4,1.1 -34.3,17.7 -33.2,37.1 1.1,19.4 17.7,34.2 37.1,33.1 l 2.3,-0.1 8.3,-0.1 c 29,0 113.2,3.8 203.9,39.5 85.2,33.8 175,94.6 236.7,206.9 -81.4,13 -170.3,-12.6 -243.3,-44.4"
         style="fill:#e0758a;fill-opacity:1;fill-rule:nonzero;stroke:none"
         id="path132" />
      <path
         d="m 10919.6,16988.1 c 28.9,-38.5 69,-57.2 89.6,-41.7 20.5,15.5 13.8,59.2 -15.2,97.6 -28.9,38.5 -69,57.2 -89.6,41.7 -20.5,-15.5 -13.7,-59.2 15.2,-97.6"
         style="fill:#211414;fill-opacity:1;fill-rule:nonzero;stroke:none"
         id="path134" />
      <path
         d="m 10726.2,16842.6 c 28.9,-38.5 69,-57.1 89.5,-41.7 20.6,15.5 13.8,59.2 -15.1,97.7 -28.9,38.4 -69,57.1 -89.6,41.6 -20.5,-15.4 -13.8,-59.1 15.2,-97.6"
         style="fill:#211414;fill-opacity:1;fill-rule:nonzero;stroke:none"
         id="path136" />
      <path
         d="m 5953.17,2497.6 c -57.91,489.2 -117.45,978.3 -146.51,1470.7 -19.77,335 -39.39,673.6 -18.96,1009 11.6,190.6 31.93,393 88.11,581.3 35.87,197.4 100.79,384.8 211.8,540 v 0 c 12.49,95.6 26.98,190.8 42.7,285.5 -261.15,54.7 -522.45,116 -773.94,181.9 -14.24,-80.3 -27.3,-162.2 -39.78,-244.8 6.45,-33.4 12.97,-67.5 19.61,-102.8 4.37,-23.2 8.77,-46.8 13.21,-70.8 17.75,-95.9 36.05,-198.2 54.64,-306.4 4.65,-27 9.32,-54.4 14,-82.2 9.37,-55.6 18.79,-112.7 28.23,-171.1 56.7,-350.8 114.35,-753 166.16,-1197.3 17.27,-148.1 33.89,-300.9 49.61,-458.1 3.94,-39.3 7.81,-78.8 11.62,-118.6 30.51,-318.7 57.18,-654.4 77.97,-1004.5 5.19,-87.5 10.02,-175.9 14.46,-265.2 2.26,-45.4 4.4,-91 6.44,-136.9 45.75,15.9 112.44,44.2 180.63,90.3"
         style="fill:#b1662f;fill-opacity:1;fill-rule:nonzero;stroke:none"
         id="path138" />
      <path
         d="m 8983.89,4410 c -7.58,189.9 -7.99,382.2 8.13,572.7 -1.02,60.4 -0.36,120.7 2.73,180.7 13.66,266.2 85.58,526.3 231.59,750.8 57.49,88.4 123.36,169.6 194.89,245.5 0.51,3.4 1.12,6.6 1.63,9.9 8.55,56 17.66,111.7 27.46,166.8 0.93,5.2 1.89,10.4 2.83,15.5 8.92,49.6 18.53,98.7 28.52,147.5 -218.25,-164.5 -460.6,-277.5 -721.74,-333.4 -56.74,-12.2 -119.72,-22.1 -188.09,-29.5 19.88,-111.7 41.02,-232.3 63.02,-360.6 9.94,-58 20.04,-117.5 30.27,-178.3 56.24,-334.5 116.08,-709.3 171.77,-1094.9 10.13,-70.1 20.12,-140.6 29.93,-211.3 14.71,-106 29.01,-212.4 42.74,-318.6 13.74,-106.2 26.9,-212.2 39.33,-317.5 4.14,-35.1 8.21,-70.1 12.19,-104.9 11.94,-104.7 23.09,-208.4 33.32,-310.5 10.22,-102.1 19.52,-202.7 27.71,-301 5.47,-65.6 10.45,-130.2 14.9,-193.7 6.68,-95.2 12.16,-187.9 16.28,-277.4 4.13,-89.5 6.9,-175.8 8.17,-258.4 1.09,-71.2 0.93,-139.4 -0.33,-204.7 30.27,13 114.53,50 206.68,98.7 -17,137.3 -35.58,274.1 -54.61,410.4 -88.06,630.7 -203.91,1258.5 -229.32,1896.2"
         style="fill:#b1662f;fill-opacity:1;fill-rule:nonzero;stroke:none"
         id="path140" />
    </g>
  </g>
</svg>
